<svg xmlns="http://www.w3.org/2000/svg" xmlns:v="https://svgstorm.com"
viewBox = "0 0 963 961"
width="963"
height="961">
<g fill="None" fill-opacity="0.0" stroke="#000000" stroke-opacity="0.00" stroke-width="0.3"><path d="
M 0.00 464.00 
C 0.50 464.00 1.00 464.00 1.00 464.00
C 1.00 461.00 1.00 458.00 1.00 455.00
C 1.00 451.58 1.74 447.69 2.00 445.00
C 2.00 389.79 20.69 334.37 42.00 285.00
C 43.46 281.61 45.45 278.14 47.00 275.00
C 49.10 269.18 52.15 263.58 55.00 258.00
C 56.78 254.52 59.29 251.13 61.00 248.00
C 62.21 245.20 63.44 242.72 65.00 240.00
C 67.78 235.16 70.01 229.81 74.00 226.00
C 74.16 225.56 74.00 225.00 74.00 225.00
C 76.05 219.32 82.98 208.27 88.00 205.00
C 88.22 204.64 88.00 204.00 88.00 204.00
C 91.19 198.87 95.46 194.62 99.00 190.00
C 101.05 186.62 103.28 183.18 106.00 180.00
C 122.92 160.20 139.99 140.10 160.00 123.00
C 162.96 120.47 166.09 118.04 169.00 116.00
C 172.75 112.92 176.30 109.16 180.00 106.00
C 187.82 99.31 196.29 92.90 205.00 88.00
C 211.58 83.30 218.00 78.33 225.00 74.00
C 228.10 72.08 230.82 70.51 234.00 69.00
C 238.24 66.48 242.08 62.93 247.00 61.00
C 247.43 60.83 248.00 61.00 248.00 61.00
C 250.18 57.52 256.40 55.84 260.00 54.00
C 264.30 51.80 268.51 49.61 273.00 48.00
C 276.86 46.09 280.90 43.77 285.00 42.00
C 297.95 36.41 310.39 30.63 324.00 27.00
C 327.50 25.68 331.13 24.16 335.00 23.00
C 369.86 12.56 406.52 2.00 444.00 2.00
C 446.42 1.77 449.91 1.00 453.00 1.00
C 455.67 1.00 458.33 1.00 461.00 1.00
C 460.96 1.00 461.00 0.00 461.00 0.00
L 0.00 0.00
L 0.00 464.00 Z"/>
</g>
<g fill="None" fill-opacity="0.0" stroke="#BBBABA" stroke-opacity="1.00" stroke-width="0.3"><path d="
M 461.00 1.00 
C 474.67 1.00 488.33 1.00 502.00 1.00
C 501.93 0.99 502.00 0.00 502.00 0.00
L 461.00 0.00
C 461.00 0.00 460.96 1.00 461.00 1.00 Z"/>
</g>
<g fill="None" fill-opacity="0.0" stroke="#000000" stroke-opacity="0.00" stroke-width="0.3"><path d="
M 502.00 1.00 
C 504.33 1.00 506.67 1.00 509.00 1.00
C 512.43 1.00 516.31 1.74 519.00 2.00
C 555.33 2.00 591.16 11.87 625.00 22.00
C 627.98 22.89 631.33 24.13 634.00 25.00
C 653.20 29.40 670.92 39.19 689.00 47.00
C 693.32 48.86 701.38 50.80 704.00 55.00
C 704.43 55.17 705.00 55.00 705.00 55.00
C 709.43 56.74 713.18 59.91 717.00 62.00
C 723.31 64.72 729.08 68.33 735.00 72.00
C 738.51 74.17 741.78 76.82 745.00 79.00
C 747.29 80.24 749.68 81.50 752.00 83.00
C 755.13 85.02 758.94 86.85 761.00 90.00
C 761.36 90.22 762.00 90.00 762.00 90.00
C 765.74 92.33 768.68 95.46 772.00 98.00
C 773.95 99.18 776.06 100.47 778.00 102.00
C 783.03 105.97 789.29 109.70 793.00 115.00
C 793.40 115.20 794.00 115.00 794.00 115.00
C 800.34 118.10 808.97 127.22 813.00 133.00
C 813.16 133.23 814.00 133.00 814.00 133.00
C 818.61 135.26 827.77 144.45 830.00 149.00
C 830.20 149.40 830.00 150.00 830.00 150.00
C 838.96 156.26 845.61 166.17 852.75 174.25 C 859.90 182.32 867.30 191.86 873.00 201.00
C 873.22 201.36 873.00 202.00 873.00 202.00
C 876.18 204.07 878.00 207.90 880.00 211.00
C 881.53 213.37 882.74 215.67 884.00 218.00
C 886.21 221.25 888.84 224.50 891.00 228.00
C 894.28 233.30 897.44 238.46 900.00 244.00
C 901.89 247.29 904.35 250.33 906.00 254.00
C 906.47 255.05 906.60 255.97 907.00 257.00
C 910.33 262.88 915.36 269.03 917.00 276.00
C 917.11 276.47 917.00 277.00 917.00 277.00
C 919.35 279.93 920.50 283.54 922.00 287.00
C 928.34 301.69 935.43 316.39 939.00 332.00
C 939.88 334.72 941.10 337.98 942.00 341.00
C 951.69 373.38 961.00 408.26 961.00 443.00
C 961.30 446.08 962.00 450.25 962.00 454.00
C 962.00 456.33 962.00 458.67 962.00 461.00
C 962.01 461.07 963.00 461.00 963.00 461.00
L 963.00 0.00
L 502.00 0.00
C 502.00 0.00 501.93 0.99 502.00 1.00 Z"/>
</g>
<g fill="None" fill-opacity="0.0" stroke="#B6B5B5" stroke-opacity="1.00" stroke-width="0.3"><path d="
M 444.00 2.00 
C 447.10 2.00 450.64 1.23 453.00 1.00
C 449.91 1.00 446.42 1.77 444.00 2.00 Z"/>
</g>
<g fill="None" fill-opacity="0.0" stroke="#231F20" stroke-opacity="1.00" stroke-width="0.3"><path d="
M 444.00 2.00 
C 406.52 2.00 369.86 12.56 335.00 23.00
C 331.58 24.39 327.85 25.97 324.00 27.00
C 310.39 30.63 297.95 36.41 285.00 42.00
C 281.18 44.22 277.31 46.45 273.00 48.00
C 268.51 49.61 264.30 51.80 260.00 54.00
C 256.22 56.41 252.46 59.25 248.00 61.00
C 248.00 61.00 247.43 60.83 247.00 61.00
C 244.84 64.46 237.71 67.24 234.00 69.00
C 230.82 70.51 228.10 72.08 225.00 74.00
C 218.77 78.83 212.03 84.04 205.00 88.00
C 196.29 92.90 187.82 99.31 180.00 106.00
C 176.49 109.51 173.10 113.13 169.00 116.00
C 166.09 118.04 162.96 120.47 160.00 123.00
C 141.41 141.59 124.14 161.86 106.00 180.00
C 103.28 183.18 101.05 186.62 99.00 190.00
C 96.29 194.47 92.36 201.16 88.00 204.00
C 88.00 204.00 88.22 204.64 88.00 205.00
C 83.89 211.60 79.49 219.74 74.00 225.00
C 74.00 225.00 74.16 225.56 74.00 226.00
C 72.17 231.08 67.96 235.86 65.00 240.00
C 63.44 242.72 62.21 245.20 61.00 248.00
C 59.38 251.75 57.02 254.83 55.00 258.00
C 52.15 263.58 49.10 269.18 47.00 275.00
C 45.70 278.61 43.84 281.84 42.00 285.00
C 20.69 334.37 2.00 389.79 2.00 445.00
C 2.00 448.42 1.26 452.31 1.00 455.00
C 1.00 458.00 1.00 461.00 1.00 464.00
C 1.00 475.33 1.00 486.67 1.00 498.00
C 1.00 501.33 1.00 504.67 1.00 508.00
C 1.23 510.42 2.00 513.91 2.00 517.00
C 2.00 543.77 8.20 569.65 14.00 595.00
C 15.20 598.38 16.38 602.11 17.00 606.00
C 21.32 633.18 34.16 658.89 45.00 684.00
C 49.52 691.78 54.63 700.42 58.00 709.00
C 58.17 709.43 58.00 710.00 58.00 710.00
C 60.99 711.87 62.52 716.86 64.00 720.00
C 66.60 725.50 69.73 730.72 73.00 736.00
C 78.60 743.24 84.08 751.08 89.00 759.00
C 89.22 759.36 89.00 760.00 89.00 760.00
C 93.38 762.86 97.31 769.57 100.00 774.00
C 102.26 777.73 105.02 781.52 108.00 785.00
C 111.37 788.37 115.88 791.66 118.00 796.00
C 118.20 796.40 118.00 797.00 118.00 797.00
C 120.96 799.07 125.41 802.75 127.00 806.00
C 127.20 806.40 127.00 807.00 127.00 807.00
C 136.98 813.97 145.94 825.03 154.70 833.30 C 163.45 841.58 176.28 849.37 183.00 859.00
C 183.40 859.20 184.00 859.00 184.00 859.00
C 189.48 862.41 194.27 866.92 199.00 871.00
C 201.77 872.90 204.21 874.50 207.00 876.00
C 212.07 878.74 216.63 882.62 221.00 886.00
C 224.07 887.90 226.92 889.42 230.00 891.00
C 233.34 892.71 236.16 894.97 239.00 897.00
C 241.11 898.21 242.89 899.02 245.00 900.00
C 248.56 901.64 251.81 904.04 255.00 906.00
C 256.68 906.82 258.36 907.28 260.00 908.00
C 264.54 909.98 268.90 912.75 273.00 915.00
C 274.07 915.40 274.91 915.65 276.00 916.00
C 279.67 917.17 282.85 919.17 286.00 921.00
C 334.03 941.73 384.75 955.96 437.00 961.00
L 516.00 961.00
C 518.43 959.26 522.82 960.00 526.00 960.00
C 549.20 960.00 571.98 954.04 594.00 949.00
C 596.54 948.10 598.98 947.48 602.00 947.00
C 631.97 942.23 660.33 927.94 688.00 916.00
C 693.98 912.52 700.46 908.82 707.00 906.00
C 718.27 901.14 728.51 894.50 739.00 888.00
C 745.31 883.12 752.08 878.29 759.00 874.00
C 759.36 873.78 760.00 874.00 760.00 874.00
C 764.84 866.57 776.90 860.41 784.00 855.00
C 784.32 854.76 785.00 855.00 785.00 855.00
C 787.39 851.58 792.27 846.83 796.00 845.00
C 796.40 844.80 797.00 845.00 797.00 845.00
C 802.33 837.37 810.67 831.87 817.25 825.25 C 823.83 818.63 830.43 810.29 838.00 805.00
C 838.20 804.60 838.00 804.00 838.00 804.00
C 842.88 794.03 855.30 782.70 863.00 775.00
C 866.38 770.71 869.31 766.44 872.00 762.00
C 874.07 758.58 876.61 755.94 879.00 753.00
C 887.47 739.87 896.84 727.27 903.00 713.00
C 905.19 707.93 908.20 703.38 911.00 699.00
C 912.54 695.99 913.88 693.12 915.00 690.00
C 916.30 686.39 918.16 683.16 920.00 680.00
C 941.49 630.21 961.00 574.76 961.00 519.00
C 961.00 515.58 961.74 511.68 962.00 509.00
C 962.00 506.67 962.00 504.33 962.00 502.00
C 962.00 488.33 962.00 474.67 962.00 461.00
C 962.00 458.67 962.00 456.33 962.00 454.00
C 961.71 450.93 961.00 446.75 961.00 443.00
C 961.00 408.26 951.69 373.38 942.00 341.00
C 940.83 338.13 939.76 335.31 939.00 332.00
C 935.43 316.39 928.34 301.69 922.00 287.00
C 920.18 283.87 917.87 280.75 917.00 277.00
C 917.00 277.00 917.11 276.47 917.00 276.00
C 913.01 271.03 909.35 263.11 907.00 257.00
C 906.60 255.97 906.47 255.05 906.00 254.00
C 903.90 250.78 901.67 247.61 900.00 244.00
C 897.44 238.46 894.28 233.30 891.00 228.00
C 888.52 224.79 886.01 221.72 884.00 218.00
C 882.74 215.67 881.53 213.37 880.00 211.00
C 877.57 208.01 875.10 205.38 873.00 202.00
C 873.00 202.00 873.22 201.36 873.00 201.00
C 863.92 195.08 860.17 182.19 852.23 174.77 C 844.29 167.35 837.71 157.71 830.00 150.00
C 824.41 144.42 818.54 138.54 813.00 133.00
C 806.91 126.91 798.92 122.03 794.00 115.00
C 794.00 115.00 793.40 115.20 793.00 115.00
C 787.41 112.27 782.28 106.28 778.00 102.00
C 776.06 100.47 773.95 99.18 772.00 98.00
C 768.61 95.94 764.16 93.32 762.00 90.00
C 762.00 90.00 761.36 90.22 761.00 90.00
C 757.61 87.89 754.94 85.40 752.00 83.00
C 749.68 81.50 747.29 80.24 745.00 79.00
C 741.26 76.98 738.18 74.46 735.00 72.00
C 729.08 68.33 723.31 64.72 717.00 62.00
C 713.44 60.46 707.05 58.29 705.00 55.00
C 705.00 55.00 704.43 55.17 704.00 55.00
C 698.76 52.94 693.63 49.69 689.00 47.00
C 670.92 39.19 653.20 29.40 634.00 25.00
C 630.73 24.25 627.84 23.15 625.00 22.00
C 591.16 11.87 555.33 2.00 519.00 2.00
C 515.58 2.00 511.68 1.26 509.00 1.00
C 506.67 1.00 504.33 1.00 502.00 1.00
C 488.33 1.00 474.67 1.00 461.00 1.00
C 458.33 1.00 455.67 1.00 453.00 1.00
C 450.64 1.23 447.10 2.00 444.00 2.00
M 558.00 419.00 
C 567.92 404.52 583.05 420.89 589.00 431.00
C 595.87 417.44 608.60 432.57 605.00 443.00
C 611.34 435.05 623.44 421.78 633.75 429.25 C 644.05 436.73 650.10 448.75 644.00 460.00
C 657.61 471.89 637.47 474.41 629.00 473.00
C 633.73 477.54 645.80 472.16 646.97 482.03 C 648.14 491.89 628.31 483.48 630.00 493.00
C 636.42 492.32 649.29 492.67 647.67 501.67 C 646.04 510.67 630.37 503.41 629.08 511.08 C 627.80 518.76 628.00 526.49 618.97 528.97 C 609.95 531.46 603.56 527.86 604.00 518.00
C 600.22 518.04 596.45 518.28 593.00 517.00
C 596.32 535.29 574.72 537.01 563.00 531.00
C 552.33 543.91 543.31 517.34 548.00 508.00
C 533.56 511.29 533.54 495.31 535.00 485.00 C 536.46 474.69 532.89 462.27 537.00 454.00
C 533.03 447.88 533.62 442.27 539.30 436.30 C 544.98 430.33 541.02 425.09 541.93 417.93 C 542.83 410.77 556.19 411.98 558.00 419.00
M 479.00 458.00 
C 481.04 461.38 485.57 463.49 485.00 468.00
C 496.08 459.67 516.75 449.61 525.77 466.23 C 534.79 482.85 517.82 475.70 512.00 481.00
C 526.29 488.59 518.15 505.80 521.00 519.00 C 523.85 532.20 508.35 545.80 496.93 536.07 C 485.50 526.34 474.68 537.52 466.00 524.00
C 450.38 529.20 453.43 508.31 450.00 500.00
C 447.38 506.11 454.63 525.27 445.00 526.00 C 435.36 526.72 431.40 517.85 425.00 513.00
C 417.93 517.10 401.92 506.51 412.00 500.00
C 410.70 497.03 406.23 495.78 407.00 492.00
C 409.52 491.93 414.25 492.93 414.00 489.00
C 419.04 488.54 423.24 490.75 428.00 489.00
C 422.05 486.69 410.87 489.76 408.00 482.00
C 410.17 480.77 412.68 480.78 415.00 480.00
C 408.87 476.92 406.22 471.63 413.00 467.00
C 401.48 463.90 416.83 455.53 421.00 452.00
C 412.71 445.95 418.28 441.83 424.08 435.08 C 429.88 428.33 439.98 432.43 447.00 432.00 C 454.03 431.56 462.57 423.52 468.75 432.25 C 474.93 440.98 469.26 449.28 460.00 450.00
C 462.14 451.66 464.26 454.05 467.00 455.00
C 471.36 447.02 479.69 441.42 488.00 439.00
C 470.59 428.10 489.91 415.07 502.00 417.00 C 514.09 418.93 527.98 436.37 518.25 446.25 C 508.51 456.13 488.91 447.09 479.00 458.00
M 121.00 521.00 
C 118.46 517.91 119.96 496.02 121.00 496.00
C 124.89 495.92 130.32 506.36 135.03 505.98 C 139.73 505.59 153.31 509.93 150.00 499.00 C 146.68 488.07 131.43 484.37 124.75 476.25 C 118.07 468.12 118.40 468.08 116.02 459.98 C 113.64 451.88 116.96 445.88 120.25 440.25 C 123.55 434.63 128.59 432.40 134.08 430.08 C 139.56 427.75 149.13 425.84 155.00 427.00 C 160.87 428.16 169.94 426.88 173.75 432.25 C 177.56 437.63 173.32 449.74 175.00 456.00
C 165.57 450.58 163.77 443.42 151.00 444.00 C 138.22 444.59 144.29 459.19 153.70 462.30 C 163.10 465.41 168.39 471.62 173.77 479.23 C 179.15 486.84 180.04 500.66 175.08 509.08 C 170.11 517.49 162.69 522.49 152.98 523.98 C 143.26 525.46 130.04 526.02 121.00 521.00
M 716.00 457.00 
C 710.27 451.65 697.15 438.11 688.75 446.75 C 680.36 455.40 695.26 463.84 702.70 468.30 C 710.13 472.77 718.93 481.56 720.33 491.67 C 721.73 501.79 719.32 513.52 708.25 519.25 C 697.19 524.98 687.64 525.44 673.98 524.02 C 660.31 522.61 660.62 508.62 661.00 496.00
C 670.79 501.74 671.27 506.64 684.00 508.00 C 696.73 509.36 694.54 494.85 684.92 491.08 C 675.29 487.32 670.85 482.47 664.70 475.30 C 658.54 468.14 655.92 457.49 659.32 448.32 C 662.72 439.15 667.07 433.51 677.03 430.03 C 686.98 426.54 696.82 426.47 708.22 428.78 C 719.62 431.08 715.65 446.28 716.00 457.00
M 214.00 439.00 
C 213.19 447.93 214.61 457.05 214.00 466.00
C 220.33 466.00 226.67 466.00 233.00 466.00
C 236.36 461.20 230.81 450.67 233.00 445.00 C 235.19 439.33 230.40 432.95 229.00 428.00
C 240.67 428.00 252.33 428.00 264.00 428.00
C 258.03 442.37 259.68 460.01 260.00 476.00 C 260.32 491.99 256.78 510.33 265.00 524.00
C 253.00 524.00 241.00 524.00 229.00 524.00
C 235.62 512.17 232.17 497.45 233.00 484.00
C 226.67 484.00 220.33 484.00 214.00 484.00
C 214.47 493.30 213.37 502.71 214.00 512.00
C 214.30 516.42 215.76 520.19 218.00 524.00
C 206.00 524.00 194.00 524.00 182.00 524.00
C 188.75 509.91 186.00 491.88 186.00 476.00 C 186.00 460.12 188.75 442.07 182.00 428.00
C 194.00 428.00 206.00 428.00 218.00 428.00
C 216.55 431.66 213.50 434.75 214.00 439.00
M 302.00 440.00 
C 301.17 452.15 301.84 464.82 302.00 477.00 C 302.16 489.18 300.76 501.90 302.00 514.00
C 302.81 517.66 303.70 520.88 306.00 524.00
C 294.00 524.00 282.00 524.00 270.00 524.00
C 276.77 509.92 273.97 491.88 274.00 476.00 C 274.03 460.12 276.68 441.92 270.00 428.00
C 282.00 428.00 294.00 428.00 306.00 428.00
C 304.68 431.91 301.42 435.36 302.00 440.00
M 396.00 439.00 
C 394.89 451.23 395.96 463.67 396.00 476.00 C 396.04 488.33 394.88 501.68 396.00 514.00
C 396.73 517.50 397.16 520.81 399.00 524.00
C 390.44 522.05 373.71 527.96 368.08 520.92 C 362.46 513.88 359.92 506.27 354.75 499.25 C 349.57 492.24 346.79 484.27 341.00 478.00
C 342.36 493.29 337.57 510.55 345.00 524.00
C 334.00 524.00 323.00 524.00 312.00 524.00
C 312.36 520.47 315.83 517.90 315.00 514.00
C 316.06 502.34 315.26 489.70 315.00 478.00 C 314.74 466.30 316.76 453.53 315.00 442.00
C 313.62 437.11 310.30 432.93 309.00 428.00
C 321.03 426.74 335.34 426.14 338.77 437.23 C 342.21 448.31 349.67 452.26 354.25 461.75 C 358.84 471.24 364.42 477.66 370.00 486.00
C 367.99 466.87 374.42 445.28 366.00 428.00
C 377.33 428.00 388.67 428.00 400.00 428.00
C 398.55 431.66 395.50 434.75 396.00 439.00
M 755.00 446.00 
C 755.00 453.00 755.00 460.00 755.00 467.00
C 761.50 467.66 769.33 465.68 775.00 468.00
C 776.14 469.95 770.75 474.68 770.23 477.23 C 769.71 479.78 765.57 484.10 765.00 487.00
C 761.56 486.39 758.70 483.83 755.00 484.00
C 755.00 491.33 755.00 498.67 755.00 506.00
C 758.51 508.46 765.13 504.87 769.07 505.07 C 773.01 505.28 778.86 502.96 783.00 503.00
C 781.29 510.31 777.06 516.79 775.00 524.00
C 757.67 524.00 740.33 524.00 723.00 524.00
C 729.72 510.07 726.98 491.89 727.00 476.00 C 727.02 460.11 729.64 442.14 723.00 428.00
C 741.00 428.00 759.00 428.00 777.00 428.00
C 775.72 435.06 772.55 437.38 770.69 444.69 C 768.84 452.01 760.90 445.05 755.00 446.00
M 809.00 428.00 
C 816.55 449.37 832.12 467.93 844.00 487.00
C 842.39 467.41 847.82 445.88 840.00 428.00
C 851.00 428.00 862.00 428.00 873.00 428.00
C 866.68 442.21 868.93 459.03 869.00 475.00 C 869.07 490.97 866.90 509.23 872.00 524.00
C 863.58 522.05 846.43 528.02 841.23 520.77 C 836.03 513.52 833.25 506.86 828.25 499.75 C 823.25 492.65 820.14 485.00 815.00 478.00
C 813.60 492.55 811.95 510.28 818.00 524.00
C 807.00 524.00 796.00 524.00 785.00 524.00
C 791.98 509.71 788.54 491.19 789.00 475.00 C 789.46 458.81 791.43 441.38 782.00 428.00
C 791.00 428.00 800.00 428.00 809.00 428.00
M 538.00 510.00 
C 540.87 518.23 547.94 542.51 534.78 538.22 C 521.62 533.94 526.89 508.19 538.00 510.00 Z"/>
</g>
<g fill="None" fill-opacity="0.0" stroke="#ADABAC" stroke-opacity="1.00" stroke-width="0.3"><path d="
M 519.00 2.00 
C 516.31 1.74 512.43 1.00 509.00 1.00
C 511.68 1.26 515.58 2.00 519.00 2.00 Z"/>
</g>
<g fill="None" fill-opacity="0.0" stroke="#BCBABA" stroke-opacity="1.00" stroke-width="0.3"><path d="
M 634.00 25.00 
C 631.33 24.13 627.98 22.89 625.00 22.00
C 627.84 23.15 630.73 24.25 634.00 25.00 Z"/>
</g>
<g fill="None" fill-opacity="0.0" stroke="#BAB9B9" stroke-opacity="1.00" stroke-width="0.3"><path d="
M 324.00 27.00 
C 327.85 25.97 331.58 24.39 335.00 23.00
C 331.13 24.16 327.50 25.68 324.00 27.00 Z"/>
</g>
<g fill="None" fill-opacity="0.0" stroke="#AEADAD" stroke-opacity="1.00" stroke-width="0.3"><path d="
M 273.00 48.00 
C 277.31 46.45 281.18 44.22 285.00 42.00
C 280.90 43.77 276.86 46.09 273.00 48.00 Z"/>
</g>
<g fill="None" fill-opacity="0.0" stroke="#D1D0D0" stroke-opacity="1.00" stroke-width="0.3"><path d="
M 704.00 55.00 
C 701.38 50.80 693.32 48.86 689.00 47.00
C 693.63 49.69 698.76 52.94 704.00 55.00 Z"/>
</g>
<g fill="None" fill-opacity="0.0" stroke="#B2B1B1" stroke-opacity="1.00" stroke-width="0.3"><path d="
M 248.00 61.00 
C 252.46 59.25 256.22 56.41 260.00 54.00
C 256.40 55.84 250.18 57.52 248.00 61.00 Z"/>
</g>
<g fill="None" fill-opacity="0.0" stroke="#B2B1B1" stroke-opacity="1.00" stroke-width="0.3"><path d="
M 717.00 62.00 
C 713.18 59.91 709.43 56.74 705.00 55.00
C 707.05 58.29 713.44 60.46 717.00 62.00 Z"/>
</g>
<g fill="None" fill-opacity="0.0" stroke="#C1C0C0" stroke-opacity="1.00" stroke-width="0.3"><path d="
M 234.00 69.00 
C 237.71 67.24 244.84 64.46 247.00 61.00
C 242.08 62.93 238.24 66.48 234.00 69.00 Z"/>
</g>
<g fill="None" fill-opacity="0.0" stroke="#C4C3C3" stroke-opacity="1.00" stroke-width="0.3"><path d="
M 745.00 79.00 
C 741.78 76.82 738.51 74.17 735.00 72.00
C 738.18 74.46 741.26 76.98 745.00 79.00 Z"/>
</g>
<g fill="None" fill-opacity="0.0" stroke="#C5C4C4" stroke-opacity="1.00" stroke-width="0.3"><path d="
M 205.00 88.00 
C 212.03 84.04 218.77 78.83 225.00 74.00
C 218.00 78.33 211.58 83.30 205.00 88.00 Z"/>
</g>
<g fill="None" fill-opacity="0.0" stroke="#C5C4C5" stroke-opacity="1.00" stroke-width="0.3"><path d="
M 761.00 90.00 
C 758.94 86.85 755.13 85.02 752.00 83.00
C 754.94 85.40 757.61 87.89 761.00 90.00 Z"/>
</g>
<g fill="None" fill-opacity="0.0" stroke="#CBCACB" stroke-opacity="1.00" stroke-width="0.3"><path d="
M 772.00 98.00 
C 768.68 95.46 765.74 92.33 762.00 90.00
C 764.16 93.32 768.61 95.94 772.00 98.00 Z"/>
</g>
<g fill="None" fill-opacity="0.0" stroke="#BCBBBB" stroke-opacity="1.00" stroke-width="0.3"><path d="
M 793.00 115.00 
C 789.29 109.70 783.03 105.97 778.00 102.00
C 782.28 106.28 787.41 112.27 793.00 115.00 Z"/>
</g>
<g fill="None" fill-opacity="0.0" stroke="#CAC9C9" stroke-opacity="1.00" stroke-width="0.3"><path d="
M 169.00 116.00 
C 173.10 113.13 176.49 109.51 180.00 106.00
C 176.30 109.16 172.75 112.92 169.00 116.00 Z"/>
</g>
<g fill="None" fill-opacity="0.0" stroke="#BEBDBD" stroke-opacity="1.00" stroke-width="0.3"><path d="
M 813.00 133.00 
C 808.97 127.22 800.34 118.10 794.00 115.00
C 798.92 122.03 806.91 126.91 813.00 133.00 Z"/>
</g>
<g fill="None" fill-opacity="0.0" stroke="#B7B5B6" stroke-opacity="1.00" stroke-width="0.3"><path d="
M 106.00 180.00 
C 124.14 161.86 141.41 141.59 160.00 123.00
C 139.99 140.10 122.92 160.20 106.00 180.00 Z"/>
</g>
<g fill="None" fill-opacity="0.0" stroke="#625F60" stroke-opacity="1.00" stroke-width="0.3"><path d="
M 830.00 150.00 
C 830.00 150.00 830.20 149.40 830.00 149.00
C 824.43 145.10 817.86 138.51 814.00 133.00
C 814.00 133.00 813.16 133.23 813.00 133.00
C 818.54 138.54 824.41 144.42 830.00 150.00 Z"/>
</g>
<g fill="None" fill-opacity="0.0" stroke="#F8F8F8" stroke-opacity="1.00" stroke-width="0.3"><path d="
M 830.00 149.00 
C 827.77 144.45 818.61 135.26 814.00 133.00
C 817.86 138.51 824.43 145.10 830.00 149.00 Z"/>
</g>
<g fill="None" fill-opacity="0.0" stroke="#BDBCBC" stroke-opacity="1.00" stroke-width="0.3"><path d="
M 873.00 201.00 
C 867.30 191.86 859.90 182.32 852.75 174.25 C 845.61 166.17 838.96 156.26 830.00 150.00
C 837.71 157.71 844.29 167.35 852.23 174.77 C 860.17 182.19 863.92 195.08 873.00 201.00 Z"/>
</g>
<g fill="None" fill-opacity="0.0" stroke="#BAB9B9" stroke-opacity="1.00" stroke-width="0.3"><path d="
M 88.00 204.00 
C 92.36 201.16 96.29 194.47 99.00 190.00
C 95.46 194.62 91.19 198.87 88.00 204.00 Z"/>
</g>
<g fill="None" fill-opacity="0.0" stroke="#C2C1C1" stroke-opacity="1.00" stroke-width="0.3"><path d="
M 880.00 211.00 
C 878.00 207.90 876.18 204.07 873.00 202.00
C 875.10 205.38 877.57 208.01 880.00 211.00 Z"/>
</g>
<g fill="None" fill-opacity="0.0" stroke="#C7C7C7" stroke-opacity="1.00" stroke-width="0.3"><path d="
M 74.00 225.00 
C 79.49 219.74 83.89 211.60 88.00 205.00
C 82.98 208.27 76.05 219.32 74.00 225.00 Z"/>
</g>
<g fill="None" fill-opacity="0.0" stroke="#C0BFBF" stroke-opacity="1.00" stroke-width="0.3"><path d="
M 891.00 228.00 
C 888.84 224.50 886.21 221.25 884.00 218.00
C 886.01 221.72 888.52 224.79 891.00 228.00 Z"/>
</g>
<g fill="None" fill-opacity="0.0" stroke="#C1C0C0" stroke-opacity="1.00" stroke-width="0.3"><path d="
M 65.00 240.00 
C 67.96 235.86 72.17 231.08 74.00 226.00
C 70.01 229.81 67.78 235.16 65.00 240.00 Z"/>
</g>
<g fill="None" fill-opacity="0.0" stroke="#B4B2B3" stroke-opacity="1.00" stroke-width="0.3"><path d="
M 906.00 254.00 
C 904.35 250.33 901.89 247.29 900.00 244.00
C 901.67 247.61 903.90 250.78 906.00 254.00 Z"/>
</g>
<g fill="None" fill-opacity="0.0" stroke="#BEBCBD" stroke-opacity="1.00" stroke-width="0.3"><path d="
M 55.00 258.00 
C 57.02 254.83 59.38 251.75 61.00 248.00
C 59.29 251.13 56.78 254.52 55.00 258.00 Z"/>
</g>
<g fill="None" fill-opacity="0.0" stroke="#CFCFCF" stroke-opacity="1.00" stroke-width="0.3"><path d="
M 917.00 276.00 
C 915.36 269.03 910.33 262.88 907.00 257.00
C 909.35 263.11 913.01 271.03 917.00 276.00 Z"/>
</g>
<g fill="None" fill-opacity="0.0" stroke="#BCBABB" stroke-opacity="1.00" stroke-width="0.3"><path d="
M 42.00 285.00 
C 43.84 281.84 45.70 278.61 47.00 275.00
C 45.45 278.14 43.46 281.61 42.00 285.00 Z"/>
</g>
<g fill="None" fill-opacity="0.0" stroke="#B1AFB0" stroke-opacity="1.00" stroke-width="0.3"><path d="
M 922.00 287.00 
C 920.50 283.54 919.35 279.93 917.00 277.00
C 917.87 280.75 920.18 283.87 922.00 287.00 Z"/>
</g>
<g fill="None" fill-opacity="0.0" stroke="#BCBBBB" stroke-opacity="1.00" stroke-width="0.3"><path d="
M 942.00 341.00 
C 941.10 337.98 939.88 334.72 939.00 332.00
C 939.76 335.31 940.83 338.13 942.00 341.00 Z"/>
</g>
<g fill="None" fill-opacity="0.0" stroke="#FBFBFB" stroke-opacity="1.00" stroke-width="0.3"><path d="
M 558.00 419.00 
C 556.19 411.98 542.83 410.77 541.93 417.93 C 541.02 425.09 544.98 430.33 539.30 436.30 C 533.62 442.27 533.03 447.88 537.00 454.00
C 532.89 462.27 536.46 474.69 535.00 485.00 C 533.54 495.31 533.56 511.29 548.00 508.00
C 543.31 517.34 552.33 543.91 563.00 531.00
C 574.72 537.01 596.32 535.29 593.00 517.00
C 596.45 518.28 600.22 518.04 604.00 518.00
C 603.56 527.86 609.95 531.46 618.97 528.97 C 628.00 526.49 627.80 518.76 629.08 511.08 C 630.37 503.41 646.04 510.67 647.67 501.67 C 649.29 492.67 636.42 492.32 630.00 493.00
C 628.31 483.48 648.14 491.89 646.97 482.03 C 645.80 472.16 633.73 477.54 629.00 473.00
C 637.47 474.41 657.61 471.89 644.00 460.00
C 650.10 448.75 644.05 436.73 633.75 429.25 C 623.44 421.78 611.34 435.05 605.00 443.00
C 608.60 432.57 595.87 417.44 589.00 431.00
C 583.05 420.89 567.92 404.52 558.00 419.00
M 570.00 429.00 
C 567.12 436.34 562.40 444.95 555.00 449.00
C 558.33 441.90 561.97 431.45 570.00 429.00
M 611.00 454.00 
C 612.44 450.39 623.15 438.05 626.74 442.26 C 630.34 446.47 615.86 456.93 611.00 454.00
M 590.00 443.00 
C 590.56 449.35 594.33 454.56 597.00 460.00
C 588.89 461.30 578.82 447.07 590.00 443.00
M 568.00 468.00 
C 566.58 454.89 579.70 467.85 568.00 468.00
M 550.00 472.00 
C 550.52 474.83 549.88 478.95 546.00 478.00
C 545.48 475.17 546.12 471.05 550.00 472.00
M 605.00 477.00 
C 600.82 479.16 596.37 480.42 592.00 482.00
C 588.73 472.41 600.04 475.88 605.00 477.00
M 573.00 484.00 
C 575.21 496.44 561.27 484.53 573.00 484.00
M 592.00 495.00 
C 589.87 485.88 600.48 493.69 592.00 495.00
M 548.00 497.00 
C 543.48 489.86 553.90 490.57 548.00 497.00
M 605.00 494.00 
C 606.96 500.32 602.02 502.67 597.00 504.00
C 596.99 499.54 602.07 496.73 605.00 494.00
M 584.00 503.00 
C 589.81 497.86 589.95 507.75 584.00 503.00
M 575.00 504.00 
C 572.70 506.12 570.49 507.95 568.00 505.00
C 569.57 504.08 573.63 502.57 575.00 504.00
M 560.00 507.00 
C 561.14 512.79 560.80 518.70 567.08 521.92 C 573.36 525.14 574.64 514.59 575.00 510.00
C 582.52 518.60 572.15 529.22 562.00 526.00
C 562.13 519.82 549.71 508.04 560.00 507.00 Z"/>
</g>
<g fill="None" fill-opacity="0.0" stroke="#FBFBFB" stroke-opacity="1.00" stroke-width="0.3"><path d="
M 479.00 458.00 
C 488.91 447.09 508.51 456.13 518.25 446.25 C 527.98 436.37 514.09 418.93 502.00 417.00 C 489.91 415.07 470.59 428.10 488.00 439.00
C 479.69 441.42 471.36 447.02 467.00 455.00
C 464.26 454.05 462.14 451.66 460.00 450.00
C 469.26 449.28 474.93 440.98 468.75 432.25 C 462.57 423.52 454.03 431.56 447.00 432.00 C 439.98 432.43 429.88 428.33 424.08 435.08 C 418.28 441.83 412.71 445.95 421.00 452.00
C 416.83 455.53 401.48 463.90 413.00 467.00
C 406.22 471.63 408.87 476.92 415.00 480.00
C 412.68 480.78 410.17 480.77 408.00 482.00
C 410.87 489.76 422.05 486.69 428.00 489.00
C 423.24 490.75 419.04 488.54 414.00 489.00
C 414.25 492.93 409.52 491.93 407.00 492.00
C 406.23 495.78 410.70 497.03 412.00 500.00
C 401.92 506.51 417.93 517.10 425.00 513.00
C 431.40 517.85 435.36 526.72 445.00 526.00 C 454.63 525.27 447.38 506.11 450.00 500.00
C 453.43 508.31 450.38 529.20 466.00 524.00
C 474.68 537.52 485.50 526.34 496.93 536.07 C 508.35 545.80 523.85 532.20 521.00 519.00 C 518.15 505.80 526.29 488.59 512.00 481.00
C 517.82 475.70 534.79 482.85 525.77 466.23 C 516.75 449.61 496.08 459.67 485.00 468.00
C 485.57 463.49 481.04 461.38 479.00 458.00
M 446.00 460.00 
C 443.96 465.12 438.46 469.01 434.00 472.00
C 435.61 466.76 438.94 458.69 446.00 460.00
M 468.00 470.00 
C 465.46 469.04 464.11 466.20 466.00 464.00
C 468.71 464.77 467.86 467.89 468.00 470.00
M 466.00 487.00 
C 460.21 483.68 451.47 485.56 446.00 485.00
C 450.70 482.01 466.83 477.87 466.00 487.00
M 495.00 500.00 
C 495.24 502.52 498.06 510.86 495.00 513.00
C 493.21 514.25 489.01 512.06 487.00 513.00
C 487.00 509.33 487.00 505.67 487.00 502.00
C 486.72 499.06 486.58 495.93 487.00 493.00
C 487.14 489.43 489.07 482.92 493.23 485.79 C 497.39 488.65 495.00 495.90 495.00 500.00
M 465.00 509.00 
C 464.89 505.00 460.82 502.60 460.00 499.00
C 466.66 496.56 467.47 505.53 465.00 509.00
M 430.00 506.00 
C 418.78 506.79 432.06 493.87 430.00 506.00 Z"/>
</g>
<g fill="None" fill-opacity="0.0" stroke="#FBFBFB" stroke-opacity="1.00" stroke-width="0.3"><path d="
M 121.00 496.00 
C 123.24 502.84 117.49 514.83 121.00 521.00
C 130.04 526.02 143.26 525.46 152.98 523.98 C 162.69 522.49 170.11 517.49 175.08 509.08 C 180.04 500.66 179.15 486.84 173.77 479.23 C 168.39 471.62 163.10 465.41 153.70 462.30 C 144.29 459.19 138.22 444.59 151.00 444.00 C 163.77 443.42 165.57 450.58 175.00 456.00
C 173.32 449.74 177.56 437.63 173.75 432.25 C 169.94 426.88 160.87 428.16 155.00 427.00 C 149.13 425.84 139.56 427.75 134.08 430.08 C 128.59 432.40 123.55 434.63 120.25 440.25 C 116.96 445.88 113.64 451.88 116.02 459.98 C 118.40 468.08 118.07 468.12 124.75 476.25 C 131.43 484.37 146.68 488.07 150.00 499.00 C 153.31 509.93 139.73 505.59 135.03 505.98 C 130.32 506.36 124.89 495.92 121.00 496.00 Z"/>
</g>
<g fill="None" fill-opacity="0.0" stroke="#FBFBFB" stroke-opacity="1.00" stroke-width="0.3"><path d="
M 716.00 457.00 
C 715.65 446.28 719.62 431.08 708.22 428.78 C 696.82 426.47 686.98 426.54 677.03 430.03 C 667.07 433.51 662.72 439.15 659.32 448.32 C 655.92 457.49 658.54 468.14 664.70 475.30 C 670.85 482.47 675.29 487.32 684.92 491.08 C 694.54 494.85 696.73 509.36 684.00 508.00 C 671.27 506.64 670.79 501.74 661.00 496.00
C 660.62 508.62 660.31 522.61 673.98 524.02 C 687.64 525.44 697.19 524.98 708.25 519.25 C 719.32 513.52 721.73 501.79 720.33 491.67 C 718.93 481.56 710.13 472.77 702.70 468.30 C 695.26 463.84 680.36 455.40 688.75 446.75 C 697.15 438.11 710.27 451.65 716.00 457.00 Z"/>
</g>
<g fill="None" fill-opacity="0.0" stroke="#FAFAFA" stroke-opacity="1.00" stroke-width="0.3"><path d="
M 214.00 512.00 
C 213.41 508.69 212.03 501.80 213.00 498.00 C 213.97 494.20 210.81 486.23 214.00 484.00
C 220.33 484.00 226.67 484.00 233.00 484.00
C 232.17 497.45 235.62 512.17 229.00 524.00
C 241.00 524.00 253.00 524.00 265.00 524.00
C 256.78 510.33 260.32 491.99 260.00 476.00 C 259.68 460.01 258.03 442.37 264.00 428.00
C 252.33 428.00 240.67 428.00 229.00 428.00
C 230.40 432.95 235.19 439.33 233.00 445.00 C 230.81 450.67 236.36 461.20 233.00 466.00
C 231.21 468.56 212.42 469.67 213.01 462.99 C 213.60 456.32 212.69 445.34 214.00 439.00
C 213.50 434.75 216.55 431.66 218.00 428.00
C 206.00 428.00 194.00 428.00 182.00 428.00
C 188.75 442.07 186.00 460.12 186.00 476.00 C 186.00 491.88 188.75 509.91 182.00 524.00
C 194.00 524.00 206.00 524.00 218.00 524.00
C 215.76 520.19 214.30 516.42 214.00 512.00 Z"/>
</g>
<g fill="None" fill-opacity="0.0" stroke="#FAFAFA" stroke-opacity="1.00" stroke-width="0.3"><path d="
M 302.00 514.00 
C 299.52 502.80 301.18 489.03 301.00 477.00 C 300.82 464.97 300.00 451.18 302.00 440.00
C 301.42 435.36 304.68 431.91 306.00 428.00
C 294.00 428.00 282.00 428.00 270.00 428.00
C 276.68 441.92 274.03 460.12 274.00 476.00 C 273.97 491.88 276.77 509.92 270.00 524.00
C 282.00 524.00 294.00 524.00 306.00 524.00
C 303.70 520.88 302.81 517.66 302.00 514.00 Z"/>
</g>
<g fill="None" fill-opacity="0.0" stroke="#FBFBFB" stroke-opacity="1.00" stroke-width="0.3"><path d="
M 315.00 442.00 
C 317.99 452.57 315.70 466.49 316.00 478.00 C 316.30 489.51 317.20 503.36 315.00 514.00
C 315.83 517.90 312.36 520.47 312.00 524.00
C 323.00 524.00 334.00 524.00 345.00 524.00
C 337.57 510.55 342.36 493.29 341.00 478.00
C 346.79 484.27 349.57 492.24 354.75 499.25 C 359.92 506.27 362.46 513.88 368.08 520.92 C 373.71 527.96 390.44 522.05 399.00 524.00
C 397.16 520.81 396.73 517.50 396.00 514.00
C 393.66 502.70 394.97 489.16 395.00 477.00 C 395.03 464.84 393.66 450.32 396.00 439.00
C 395.50 434.75 398.55 431.66 400.00 428.00
C 388.67 428.00 377.33 428.00 366.00 428.00
C 374.42 445.28 367.99 466.87 370.00 486.00
C 364.42 477.66 358.84 471.24 354.25 461.75 C 349.67 452.26 342.21 448.31 338.77 437.23 C 335.34 426.14 321.03 426.74 309.00 428.00
C 310.30 432.93 313.62 437.11 315.00 442.00 Z"/>
</g>
<g fill="None" fill-opacity="0.0" stroke="#FAFAFA" stroke-opacity="1.00" stroke-width="0.3"><path d="
M 755.00 506.00 
C 752.87 504.51 752.88 485.37 755.00 484.00
C 758.70 483.83 761.56 486.39 765.00 487.00
C 765.57 484.10 769.71 479.78 770.23 477.23 C 770.75 474.68 776.14 469.95 775.00 468.00
C 771.35 466.99 756.17 469.90 754.26 466.74 C 752.35 463.59 753.02 447.35 755.00 446.00
C 760.90 445.05 768.84 452.01 770.69 444.69 C 772.55 437.38 775.72 435.06 777.00 428.00
C 759.00 428.00 741.00 428.00 723.00 428.00
C 729.64 442.14 727.02 460.11 727.00 476.00 C 726.98 491.89 729.72 510.07 723.00 524.00
C 740.33 524.00 757.67 524.00 775.00 524.00
C 777.06 516.79 781.29 510.31 783.00 503.00
C 778.86 502.96 773.01 505.28 769.07 505.07 C 765.13 504.87 758.51 508.46 755.00 506.00 Z"/>
</g>
<g fill="None" fill-opacity="0.0" stroke="#FBFBFB" stroke-opacity="1.00" stroke-width="0.3"><path d="
M 809.00 428.00 
C 800.00 428.00 791.00 428.00 782.00 428.00
C 791.43 441.38 789.46 458.81 789.00 475.00 C 788.54 491.19 791.98 509.71 785.00 524.00
C 796.00 524.00 807.00 524.00 818.00 524.00
C 811.95 510.28 813.60 492.55 815.00 478.00
C 820.14 485.00 823.25 492.65 828.25 499.75 C 833.25 506.86 836.03 513.52 841.23 520.77 C 846.43 528.02 863.58 522.05 872.00 524.00
C 866.90 509.23 869.07 490.97 869.00 475.00 C 868.93 459.03 866.68 442.21 873.00 428.00
C 862.00 428.00 851.00 428.00 840.00 428.00
C 847.82 445.88 842.39 467.41 844.00 487.00
C 832.12 467.93 816.55 449.37 809.00 428.00 Z"/>
</g>
<g fill="None" fill-opacity="0.0" stroke="#2C2829" stroke-opacity="1.00" stroke-width="0.3"><path d="
M 570.00 429.00 
C 561.97 431.45 558.33 441.90 555.00 449.00
C 562.40 444.95 567.12 436.34 570.00 429.00 Z"/>
</g>
<g fill="None" fill-opacity="0.0" stroke="#858283" stroke-opacity="1.00" stroke-width="0.3"><path d="
M 233.00 466.00 
C 226.67 466.00 220.33 466.00 214.00 466.00
C 214.61 457.05 213.19 447.93 214.00 439.00
C 212.69 445.34 213.60 456.32 213.01 462.99 C 212.42 469.67 231.21 468.56 233.00 466.00 Z"/>
</g>
<g fill="None" fill-opacity="0.0" stroke="#777475" stroke-opacity="1.00" stroke-width="0.3"><path d="
M 396.00 514.00 
C 394.88 501.68 396.04 488.33 396.00 476.00 C 395.96 463.67 394.89 451.23 396.00 439.00
C 393.66 450.32 395.03 464.84 395.00 477.00 C 394.97 489.16 393.66 502.70 396.00 514.00 Z"/>
</g>
<g fill="None" fill-opacity="0.0" stroke="#848182" stroke-opacity="1.00" stroke-width="0.3"><path d="
M 302.00 514.00 
C 300.76 501.90 302.16 489.18 302.00 477.00 C 301.84 464.82 301.17 452.15 302.00 440.00
C 300.00 451.18 300.82 464.97 301.00 477.00 C 301.18 489.03 299.52 502.80 302.00 514.00 Z"/>
</g>
<g fill="None" fill-opacity="0.0" stroke="#2B2728" stroke-opacity="1.00" stroke-width="0.3"><path d="
M 611.00 454.00 
C 615.86 456.93 630.34 446.47 626.74 442.26 C 623.15 438.05 612.44 450.39 611.00 454.00 Z"/>
</g>
<g fill="None" fill-opacity="0.0" stroke="#767374" stroke-opacity="1.00" stroke-width="0.3"><path d="
M 315.00 514.00 
C 317.20 503.36 316.30 489.51 316.00 478.00 C 315.70 466.49 317.99 452.57 315.00 442.00
C 316.76 453.53 314.74 466.30 315.00 478.00 C 315.26 489.70 316.06 502.34 315.00 514.00 Z"/>
</g>
<g fill="None" fill-opacity="0.0" stroke="#2F2B2C" stroke-opacity="1.00" stroke-width="0.3"><path d="
M 590.00 443.00 
C 578.82 447.07 588.89 461.30 597.00 460.00
C 594.33 454.56 590.56 449.35 590.00 443.00 Z"/>
</g>
<g fill="None" fill-opacity="0.0" stroke="#B0AFAF" stroke-opacity="1.00" stroke-width="0.3"><path d="
M 962.00 454.00 
C 962.00 450.25 961.30 446.08 961.00 443.00
C 961.00 446.75 961.71 450.93 962.00 454.00 Z"/>
</g>
<g fill="None" fill-opacity="0.0" stroke="#B8B7B7" stroke-opacity="1.00" stroke-width="0.3"><path d="
M 1.00 455.00 
C 1.26 452.31 2.00 448.42 2.00 445.00
C 1.74 447.69 1.00 451.58 1.00 455.00 Z"/>
</g>
<g fill="None" fill-opacity="0.0" stroke="#7D7A7B" stroke-opacity="1.00" stroke-width="0.3"><path d="
M 775.00 468.00 
C 769.33 465.68 761.50 467.66 755.00 467.00
C 755.00 460.00 755.00 453.00 755.00 446.00
C 753.02 447.35 752.35 463.59 754.26 466.74 C 756.17 469.90 771.35 466.99 775.00 468.00 Z"/>
</g>
<g fill="None" fill-opacity="0.0" stroke="#2C2829" stroke-opacity="1.00" stroke-width="0.3"><path d="
M 446.00 460.00 
C 438.94 458.69 435.61 466.76 434.00 472.00
C 438.46 469.01 443.96 465.12 446.00 460.00 Z"/>
</g>
<g fill="None" fill-opacity="0.0" stroke="#3A3637" stroke-opacity="1.00" stroke-width="0.3"><path d="
M 568.00 468.00 
C 579.70 467.85 566.58 454.89 568.00 468.00 Z"/>
</g>
<g fill="None" fill-opacity="0.0" stroke="#B8B7B7" stroke-opacity="1.00" stroke-width="0.3"><path d="
M 962.00 502.00 
C 962.01 501.93 963.00 502.00 963.00 502.00
L 963.00 461.00
C 963.00 461.00 962.01 461.07 962.00 461.00
C 962.00 474.67 962.00 488.33 962.00 502.00 Z"/>
</g>
<g fill="None" fill-opacity="0.0" stroke="#CCCBCB" stroke-opacity="1.00" stroke-width="0.3"><path d="
M 0.00 498.00 
C 0.50 498.00 1.00 498.00 1.00 498.00
C 1.00 486.67 1.00 475.33 1.00 464.00
C 1.00 464.00 0.50 464.00 0.00 464.00
L 0.00 498.00 Z"/>
</g>
<g fill="None" fill-opacity="0.0" stroke="#312E2F" stroke-opacity="1.00" stroke-width="0.3"><path d="
M 468.00 470.00 
C 467.86 467.89 468.71 464.77 466.00 464.00
C 464.11 466.20 465.46 469.04 468.00 470.00 Z"/>
</g>
<g fill="None" fill-opacity="0.0" stroke="#464243" stroke-opacity="1.00" stroke-width="0.3"><path d="
M 550.00 472.00 
C 546.12 471.05 545.48 475.17 546.00 478.00
C 549.88 478.95 550.52 474.83 550.00 472.00 Z"/>
</g>
<g fill="None" fill-opacity="0.0" stroke="#2E2A2B" stroke-opacity="1.00" stroke-width="0.3"><path d="
M 605.00 477.00 
C 600.04 475.88 588.73 472.41 592.00 482.00
C 596.37 480.42 600.82 479.16 605.00 477.00 Z"/>
</g>
<g fill="None" fill-opacity="0.0" stroke="#363334" stroke-opacity="1.00" stroke-width="0.3"><path d="
M 466.00 487.00 
C 466.83 477.87 450.70 482.01 446.00 485.00
C 451.47 485.56 460.21 483.68 466.00 487.00 Z"/>
</g>
<g fill="None" fill-opacity="0.0" stroke="#858283" stroke-opacity="1.00" stroke-width="0.3"><path d="
M 214.00 512.00 
C 213.37 502.71 214.47 493.30 214.00 484.00
C 210.81 486.23 213.97 494.20 213.00 498.00 C 212.03 501.80 213.41 508.69 214.00 512.00 Z"/>
</g>
<g fill="None" fill-opacity="0.0" stroke="#403C3D" stroke-opacity="1.00" stroke-width="0.3"><path d="
M 573.00 484.00 
C 561.27 484.53 575.21 496.44 573.00 484.00 Z"/>
</g>
<g fill="None" fill-opacity="0.0" stroke="#848182" stroke-opacity="1.00" stroke-width="0.3"><path d="
M 755.00 506.00 
C 755.00 498.67 755.00 491.33 755.00 484.00
C 752.88 485.37 752.87 504.51 755.00 506.00 Z"/>
</g>
<g fill="None" fill-opacity="0.0" stroke="#242021" stroke-opacity="1.00" stroke-width="0.3"><path d="
M 487.00 493.00 
C 486.89 495.99 487.00 499.01 487.00 502.00
C 487.00 505.67 487.00 509.33 487.00 513.00
C 489.01 512.06 493.21 514.25 495.00 513.00
C 495.00 508.67 495.00 504.33 495.00 500.00
C 495.00 495.90 497.39 488.65 493.23 485.79 C 489.07 482.92 487.14 489.43 487.00 493.00 Z"/>
</g>
<g fill="None" fill-opacity="0.0" stroke="#343031" stroke-opacity="1.00" stroke-width="0.3"><path d="
M 592.00 495.00 
C 600.48 493.69 589.87 485.88 592.00 495.00 Z"/>
</g>
<g fill="None" fill-opacity="0.0" stroke="#2E2A2B" stroke-opacity="1.00" stroke-width="0.3"><path d="
M 548.00 497.00 
C 553.90 490.57 543.48 489.86 548.00 497.00 Z"/>
</g>
<g fill="None" fill-opacity="0.0" stroke="#979596" stroke-opacity="1.00" stroke-width="0.3"><path d="
M 487.00 502.00 
C 487.00 499.01 486.89 495.99 487.00 493.00
C 486.58 495.93 486.72 499.06 487.00 502.00 Z"/>
</g>
<g fill="None" fill-opacity="0.0" stroke="#312D2E" stroke-opacity="1.00" stroke-width="0.3"><path d="
M 605.00 494.00 
C 602.07 496.73 596.99 499.54 597.00 504.00
C 602.02 502.67 606.96 500.32 605.00 494.00 Z"/>
</g>
<g fill="None" fill-opacity="0.0" stroke="#827F80" stroke-opacity="1.00" stroke-width="0.3"><path d="
M 121.00 521.00 
C 117.49 514.83 123.24 502.84 121.00 496.00
C 119.96 496.02 118.46 517.91 121.00 521.00 Z"/>
</g>
<g fill="None" fill-opacity="0.0" stroke="#000000" stroke-opacity="0.00" stroke-width="0.3"><path d="
M 0.00 961.00 
L 437.00 961.00
C 384.75 955.96 334.03 941.73 286.00 921.00
C 282.64 919.55 279.13 917.48 276.00 916.00
C 274.91 915.65 274.07 915.40 273.00 915.00
C 268.22 913.19 264.21 910.32 260.00 908.00
C 258.36 907.28 256.68 906.82 255.00 906.00
C 251.42 904.24 248.22 901.85 245.00 900.00
C 242.89 899.02 241.11 898.21 239.00 897.00
C 235.79 895.15 232.89 892.87 230.00 891.00
C 226.92 889.42 224.07 887.90 221.00 886.00
C 216.08 882.95 211.60 879.12 207.00 876.00
C 204.21 874.50 201.77 872.90 199.00 871.00
C 194.21 867.71 187.18 863.89 184.00 859.00
C 184.00 859.00 183.40 859.20 183.00 859.00
C 173.04 854.13 161.70 841.94 153.75 834.25 C 145.81 826.56 131.80 816.77 127.00 807.00
C 127.00 807.00 127.20 806.40 127.00 806.00
C 124.04 803.93 119.59 800.25 118.00 797.00
C 118.00 797.00 118.20 796.40 118.00 796.00
C 113.91 793.14 111.18 788.72 108.00 785.00
C 105.02 781.52 102.26 777.73 100.00 774.00
C 96.43 769.34 92.18 765.11 89.00 760.00
C 89.00 760.00 89.22 759.36 89.00 759.00
C 82.18 754.56 77.22 742.81 73.00 736.00
C 69.73 730.72 66.60 725.50 64.00 720.00
C 62.09 716.78 59.49 713.79 58.00 710.00
C 58.00 710.00 58.17 709.43 58.00 709.00
C 51.90 705.19 47.78 690.45 45.00 684.00
C 34.16 658.89 21.32 633.18 17.00 606.00
C 16.07 602.62 14.87 598.79 14.00 595.00
C 8.20 569.65 2.00 543.77 2.00 517.00
C 1.77 514.58 1.00 511.09 1.00 508.00
C 1.00 504.67 1.00 501.33 1.00 498.00
C 1.00 498.00 0.50 498.00 0.00 498.00
L 0.00 961.00 Z"/>
</g>
<g fill="None" fill-opacity="0.0" stroke="#353233" stroke-opacity="1.00" stroke-width="0.3"><path d="
M 465.00 509.00 
C 467.47 505.53 466.66 496.56 460.00 499.00
C 460.82 502.60 464.89 505.00 465.00 509.00 Z"/>
</g>
<g fill="None" fill-opacity="0.0" stroke="#423F40" stroke-opacity="1.00" stroke-width="0.3"><path d="
M 430.00 506.00 
C 432.06 493.87 418.78 506.79 430.00 506.00 Z"/>
</g>
<g fill="None" fill-opacity="0.0" stroke="#797677" stroke-opacity="1.00" stroke-width="0.3"><path d="
M 495.00 513.00 
C 498.06 510.86 495.24 502.52 495.00 500.00
C 495.00 504.33 495.00 508.67 495.00 513.00 Z"/>
</g>
<g fill="None" fill-opacity="0.0" stroke="#3A3637" stroke-opacity="1.00" stroke-width="0.3"><path d="
M 584.00 503.00 
C 589.95 507.75 589.81 497.86 584.00 503.00 Z"/>
</g>
<g fill="None" fill-opacity="0.0" stroke="#000000" stroke-opacity="0.00" stroke-width="0.3"><path d="
M 962.00 509.00 
C 962.00 512.42 961.26 516.31 961.00 519.00
C 961.00 574.76 941.49 630.21 920.00 680.00
C 918.54 683.39 916.55 686.86 915.00 690.00
C 913.88 693.12 912.54 695.99 911.00 699.00
C 908.54 703.81 905.42 708.56 903.00 713.00
C 896.84 727.27 887.47 739.87 879.00 753.00
C 876.86 756.32 874.27 759.03 872.00 762.00
C 869.31 766.44 866.38 770.71 863.00 775.00
C 855.53 784.47 848.07 796.95 838.00 804.00
C 838.00 804.00 838.20 804.60 838.00 805.00
C 834.31 812.54 824.14 819.17 818.25 825.25 C 812.36 831.32 804.51 841.33 797.00 845.00
C 797.00 845.00 796.40 844.80 796.00 845.00
C 793.48 848.61 788.90 853.10 785.00 855.00
C 785.00 855.00 784.32 854.76 784.00 855.00
C 778.77 862.48 767.63 869.25 760.00 874.00
C 760.00 874.00 759.36 873.78 759.00 874.00
C 755.04 880.07 745.04 884.26 739.00 888.00
C 728.51 894.50 718.27 901.14 707.00 906.00
C 700.87 909.35 694.66 913.13 688.00 916.00
C 660.33 927.94 631.97 942.23 602.00 947.00
C 599.66 947.64 596.73 948.38 594.00 949.00
C 571.98 954.04 549.20 960.00 526.00 960.00
C 526.04 960.00 526.00 961.00 526.00 961.00
L 963.00 961.00
L 963.00 502.00
C 963.00 502.00 962.01 501.93 962.00 502.00
C 962.00 504.33 962.00 506.67 962.00 509.00 Z"/>
</g>
<g fill="None" fill-opacity="0.0" stroke="#393637" stroke-opacity="1.00" stroke-width="0.3"><path d="
M 575.00 504.00 
C 573.63 502.57 569.57 504.08 568.00 505.00
C 570.49 507.95 572.70 506.12 575.00 504.00 Z"/>
</g>
<g fill="None" fill-opacity="0.0" stroke="#302C2D" stroke-opacity="1.00" stroke-width="0.3"><path d="
M 560.00 507.00 
C 549.71 508.04 562.13 519.82 562.00 526.00
C 572.15 529.22 582.52 518.60 575.00 510.00
C 574.64 514.59 573.36 525.14 567.08 521.92 C 560.80 518.70 561.14 512.79 560.00 507.00 Z"/>
</g>
<g fill="None" fill-opacity="0.0" stroke="#B8B6B6" stroke-opacity="1.00" stroke-width="0.3"><path d="
M 2.00 517.00 
C 2.00 513.91 1.23 510.42 1.00 508.00
C 1.00 511.09 1.77 514.58 2.00 517.00 Z"/>
</g>
<g fill="None" fill-opacity="0.0" stroke="#AFAEAE" stroke-opacity="1.00" stroke-width="0.3"><path d="
M 961.00 519.00 
C 961.26 516.31 962.00 512.42 962.00 509.00
C 961.74 511.68 961.00 515.58 961.00 519.00 Z"/>
</g>
<g fill="None" fill-opacity="0.0" stroke="#F6F6F6" stroke-opacity="1.00" stroke-width="0.3"><path d="
M 538.00 510.00 
C 526.89 508.19 521.62 533.94 534.78 538.22 C 547.94 542.51 540.87 518.23 538.00 510.00 Z"/>
</g>
<g fill="None" fill-opacity="0.0" stroke="#B1B0B0" stroke-opacity="1.00" stroke-width="0.3"><path d="
M 17.00 606.00 
C 16.38 602.11 15.20 598.38 14.00 595.00
C 14.87 598.79 16.07 602.62 17.00 606.00 Z"/>
</g>
<g fill="None" fill-opacity="0.0" stroke="#BBBABA" stroke-opacity="1.00" stroke-width="0.3"><path d="
M 915.00 690.00 
C 916.55 686.86 918.54 683.39 920.00 680.00
C 918.16 683.16 916.30 686.39 915.00 690.00 Z"/>
</g>
<g fill="None" fill-opacity="0.0" stroke="#BEBDBD" stroke-opacity="1.00" stroke-width="0.3"><path d="
M 58.00 709.00 
C 54.63 700.42 49.52 691.78 45.00 684.00
C 47.78 690.45 51.90 705.19 58.00 709.00 Z"/>
</g>
<g fill="None" fill-opacity="0.0" stroke="#B7B6B6" stroke-opacity="1.00" stroke-width="0.3"><path d="
M 903.00 713.00 
C 905.42 708.56 908.54 703.81 911.00 699.00
C 908.20 703.38 905.19 707.93 903.00 713.00 Z"/>
</g>
<g fill="None" fill-opacity="0.0" stroke="#BAB9B9" stroke-opacity="1.00" stroke-width="0.3"><path d="
M 64.00 720.00 
C 62.52 716.86 60.99 711.87 58.00 710.00
C 59.49 713.79 62.09 716.78 64.00 720.00 Z"/>
</g>
<g fill="None" fill-opacity="0.0" stroke="#C4C3C4" stroke-opacity="1.00" stroke-width="0.3"><path d="
M 89.00 759.00 
C 84.08 751.08 78.60 743.24 73.00 736.00
C 77.22 742.81 82.18 754.56 89.00 759.00 Z"/>
</g>
<g fill="None" fill-opacity="0.0" stroke="#C4C3C3" stroke-opacity="1.00" stroke-width="0.3"><path d="
M 872.00 762.00 
C 874.27 759.03 876.86 756.32 879.00 753.00
C 876.61 755.94 874.07 758.58 872.00 762.00 Z"/>
</g>
<g fill="None" fill-opacity="0.0" stroke="#C5C4C4" stroke-opacity="1.00" stroke-width="0.3"><path d="
M 100.00 774.00 
C 97.31 769.57 93.38 762.86 89.00 760.00
C 92.18 765.11 96.43 769.34 100.00 774.00 Z"/>
</g>
<g fill="None" fill-opacity="0.0" stroke="#B6B5B5" stroke-opacity="1.00" stroke-width="0.3"><path d="
M 838.00 804.00 
C 848.07 796.95 855.53 784.47 863.00 775.00
C 855.30 782.70 842.88 794.03 838.00 804.00 Z"/>
</g>
<g fill="None" fill-opacity="0.0" stroke="#C3C2C2" stroke-opacity="1.00" stroke-width="0.3"><path d="
M 118.00 796.00 
C 115.88 791.66 111.37 788.37 108.00 785.00
C 111.18 788.72 113.91 793.14 118.00 796.00 Z"/>
</g>
<g fill="None" fill-opacity="0.0" stroke="#CDCCCC" stroke-opacity="1.00" stroke-width="0.3"><path d="
M 127.00 806.00 
C 125.41 802.75 120.96 799.07 118.00 797.00
C 119.59 800.25 124.04 803.93 127.00 806.00 Z"/>
</g>
<g fill="None" fill-opacity="0.0" stroke="#C9C8C8" stroke-opacity="1.00" stroke-width="0.3"><path d="
M 797.00 845.00 
C 804.51 841.33 812.36 831.32 818.25 825.25 C 824.14 819.17 834.31 812.54 838.00 805.00
C 830.43 810.29 823.83 818.63 817.25 825.25 C 810.67 831.87 802.33 837.37 797.00 845.00 Z"/>
</g>
<g fill="None" fill-opacity="0.0" stroke="#CAC9CA" stroke-opacity="1.00" stroke-width="0.3"><path d="
M 183.00 859.00 
C 176.28 849.37 163.45 841.58 154.70 833.30 C 145.94 825.03 136.98 813.97 127.00 807.00
C 131.80 816.77 145.81 826.56 153.75 834.25 C 161.70 841.94 173.04 854.13 183.00 859.00 Z"/>
</g>
<g fill="None" fill-opacity="0.0" stroke="#C9C8C8" stroke-opacity="1.00" stroke-width="0.3"><path d="
M 785.00 855.00 
C 788.90 853.10 793.48 848.61 796.00 845.00
C 792.27 846.83 787.39 851.58 785.00 855.00 Z"/>
</g>
<g fill="None" fill-opacity="0.0" stroke="#BFBEBE" stroke-opacity="1.00" stroke-width="0.3"><path d="
M 760.00 874.00 
C 767.63 869.25 778.77 862.48 784.00 855.00
C 776.90 860.41 764.84 866.57 760.00 874.00 Z"/>
</g>
<g fill="None" fill-opacity="0.0" stroke="#C5C4C4" stroke-opacity="1.00" stroke-width="0.3"><path d="
M 199.00 871.00 
C 194.27 866.92 189.48 862.41 184.00 859.00
C 187.18 863.89 194.21 867.71 199.00 871.00 Z"/>
</g>
<g fill="None" fill-opacity="0.0" stroke="#C7C6C6" stroke-opacity="1.00" stroke-width="0.3"><path d="
M 739.00 888.00 
C 745.04 884.26 755.04 880.07 759.00 874.00
C 752.08 878.29 745.31 883.12 739.00 888.00 Z"/>
</g>
<g fill="None" fill-opacity="0.0" stroke="#C4C3C4" stroke-opacity="1.00" stroke-width="0.3"><path d="
M 221.00 886.00 
C 216.63 882.62 212.07 878.74 207.00 876.00
C 211.60 879.12 216.08 882.95 221.00 886.00 Z"/>
</g>
<g fill="None" fill-opacity="0.0" stroke="#BFBDBE" stroke-opacity="1.00" stroke-width="0.3"><path d="
M 239.00 897.00 
C 236.16 894.97 233.34 892.71 230.00 891.00
C 232.89 892.87 235.79 895.15 239.00 897.00 Z"/>
</g>
<g fill="None" fill-opacity="0.0" stroke="#B4B3B3" stroke-opacity="1.00" stroke-width="0.3"><path d="
M 255.00 906.00 
C 251.81 904.04 248.56 901.64 245.00 900.00
C 248.22 901.85 251.42 904.24 255.00 906.00 Z"/>
</g>
<g fill="None" fill-opacity="0.0" stroke="#CBCBCB" stroke-opacity="1.00" stroke-width="0.3"><path d="
M 688.00 916.00 
C 694.66 913.13 700.87 909.35 707.00 906.00
C 700.46 908.82 693.98 912.52 688.00 916.00 Z"/>
</g>
<g fill="None" fill-opacity="0.0" stroke="#D2D1D1" stroke-opacity="1.00" stroke-width="0.3"><path d="
M 273.00 915.00 
C 268.90 912.75 264.54 909.98 260.00 908.00
C 264.21 910.32 268.22 913.19 273.00 915.00 Z"/>
</g>
<g fill="None" fill-opacity="0.0" stroke="#B1B0B0" stroke-opacity="1.00" stroke-width="0.3"><path d="
M 286.00 921.00 
C 282.85 919.17 279.67 917.17 276.00 916.00
C 279.13 917.48 282.64 919.55 286.00 921.00 Z"/>
</g>
<g fill="None" fill-opacity="0.0" stroke="#B3B1B2" stroke-opacity="1.00" stroke-width="0.3"><path d="
M 594.00 949.00 
C 596.73 948.38 599.66 947.64 602.00 947.00
C 598.98 947.48 596.54 948.10 594.00 949.00 Z"/>
</g>
<g fill="None" fill-opacity="0.0" stroke="#A3A1A1" stroke-opacity="1.00" stroke-width="0.3"><path d="
M 516.00 961.00 
L 526.00 961.00
C 526.00 961.00 526.04 960.00 526.00 960.00
C 522.82 960.00 518.43 959.26 516.00 961.00 Z"/>
</g>
<g fill="#000000" fill-opacity="0.00" stroke="None">
<path d="
M 0.00 464.00 
C 0.50 464.00 1.00 464.00 1.00 464.00
C 1.00 461.00 1.00 458.00 1.00 455.00
C 1.00 451.58 1.74 447.69 2.00 445.00
C 2.00 389.79 20.69 334.37 42.00 285.00
C 43.46 281.61 45.45 278.14 47.00 275.00
C 49.10 269.18 52.15 263.58 55.00 258.00
C 56.78 254.52 59.29 251.13 61.00 248.00
C 62.21 245.20 63.44 242.72 65.00 240.00
C 67.78 235.16 70.01 229.81 74.00 226.00
C 74.16 225.56 74.00 225.00 74.00 225.00
C 76.05 219.32 82.98 208.27 88.00 205.00
C 88.22 204.64 88.00 204.00 88.00 204.00
C 91.19 198.87 95.46 194.62 99.00 190.00
C 101.05 186.62 103.28 183.18 106.00 180.00
C 122.92 160.20 139.99 140.10 160.00 123.00
C 162.96 120.47 166.09 118.04 169.00 116.00
C 172.75 112.92 176.30 109.16 180.00 106.00
C 187.82 99.31 196.29 92.90 205.00 88.00
C 211.58 83.30 218.00 78.33 225.00 74.00
C 228.10 72.08 230.82 70.51 234.00 69.00
C 238.24 66.48 242.08 62.93 247.00 61.00
C 247.43 60.83 248.00 61.00 248.00 61.00
C 250.18 57.52 256.40 55.84 260.00 54.00
C 264.30 51.80 268.51 49.61 273.00 48.00
C 276.86 46.09 280.90 43.77 285.00 42.00
C 297.95 36.41 310.39 30.63 324.00 27.00
C 327.50 25.68 331.13 24.16 335.00 23.00
C 369.86 12.56 406.52 2.00 444.00 2.00
C 446.42 1.77 449.91 1.00 453.00 1.00
C 455.67 1.00 458.33 1.00 461.00 1.00
C 460.96 1.00 461.00 0.00 461.00 0.00
L 0.00 0.00
L 0.00 464.00 Z"/>
</g>
<g fill="#BBBABA" fill-opacity="1.00" stroke="None">
<path d="
M 461.00 1.00 
C 474.67 1.00 488.33 1.00 502.00 1.00
C 501.93 0.99 502.00 0.00 502.00 0.00
L 461.00 0.00
C 461.00 0.00 460.96 1.00 461.00 1.00 Z"/>
</g>
<g fill="#000000" fill-opacity="0.00" stroke="None">
<path d="
M 502.00 1.00 
C 504.33 1.00 506.67 1.00 509.00 1.00
C 512.43 1.00 516.31 1.74 519.00 2.00
C 555.33 2.00 591.16 11.87 625.00 22.00
C 627.98 22.89 631.33 24.13 634.00 25.00
C 653.20 29.40 670.92 39.19 689.00 47.00
C 693.32 48.86 701.38 50.80 704.00 55.00
C 704.43 55.17 705.00 55.00 705.00 55.00
C 709.43 56.74 713.18 59.91 717.00 62.00
C 723.31 64.72 729.08 68.33 735.00 72.00
C 738.51 74.17 741.78 76.82 745.00 79.00
C 747.29 80.24 749.68 81.50 752.00 83.00
C 755.13 85.02 758.94 86.85 761.00 90.00
C 761.36 90.22 762.00 90.00 762.00 90.00
C 765.74 92.33 768.68 95.46 772.00 98.00
C 773.95 99.18 776.06 100.47 778.00 102.00
C 783.03 105.97 789.29 109.70 793.00 115.00
C 793.40 115.20 794.00 115.00 794.00 115.00
C 800.34 118.10 808.97 127.22 813.00 133.00
C 813.16 133.23 814.00 133.00 814.00 133.00
C 818.61 135.26 827.77 144.45 830.00 149.00
C 830.20 149.40 830.00 150.00 830.00 150.00
C 838.96 156.26 845.61 166.17 852.75 174.25 C 859.90 182.32 867.30 191.86 873.00 201.00
C 873.22 201.36 873.00 202.00 873.00 202.00
C 876.18 204.07 878.00 207.90 880.00 211.00
C 881.53 213.37 882.74 215.67 884.00 218.00
C 886.21 221.25 888.84 224.50 891.00 228.00
C 894.28 233.30 897.44 238.46 900.00 244.00
C 901.89 247.29 904.35 250.33 906.00 254.00
C 906.47 255.05 906.60 255.97 907.00 257.00
C 910.33 262.88 915.36 269.03 917.00 276.00
C 917.11 276.47 917.00 277.00 917.00 277.00
C 919.35 279.93 920.50 283.54 922.00 287.00
C 928.34 301.69 935.43 316.39 939.00 332.00
C 939.88 334.72 941.10 337.98 942.00 341.00
C 951.69 373.38 961.00 408.26 961.00 443.00
C 961.30 446.08 962.00 450.25 962.00 454.00
C 962.00 456.33 962.00 458.67 962.00 461.00
C 962.01 461.07 963.00 461.00 963.00 461.00
L 963.00 0.00
L 502.00 0.00
C 502.00 0.00 501.93 0.99 502.00 1.00 Z"/>
</g>
<g fill="#B6B5B5" fill-opacity="1.00" stroke="None">
<path d="
M 444.00 2.00 
C 447.10 2.00 450.64 1.23 453.00 1.00
C 449.91 1.00 446.42 1.77 444.00 2.00 Z"/>
</g>
<g fill="#231F20" fill-opacity="1.00" stroke="None">
<path d="
M 444.00 2.00 
C 406.52 2.00 369.86 12.56 335.00 23.00
C 331.58 24.39 327.85 25.97 324.00 27.00
C 310.39 30.63 297.95 36.41 285.00 42.00
C 281.18 44.22 277.31 46.45 273.00 48.00
C 268.51 49.61 264.30 51.80 260.00 54.00
C 256.22 56.41 252.46 59.25 248.00 61.00
C 248.00 61.00 247.43 60.83 247.00 61.00
C 244.84 64.46 237.71 67.24 234.00 69.00
C 230.82 70.51 228.10 72.08 225.00 74.00
C 218.77 78.83 212.03 84.04 205.00 88.00
C 196.29 92.90 187.82 99.31 180.00 106.00
C 176.49 109.51 173.10 113.13 169.00 116.00
C 166.09 118.04 162.96 120.47 160.00 123.00
C 141.41 141.59 124.14 161.86 106.00 180.00
C 103.28 183.18 101.05 186.62 99.00 190.00
C 96.29 194.47 92.36 201.16 88.00 204.00
C 88.00 204.00 88.22 204.64 88.00 205.00
C 83.89 211.60 79.49 219.74 74.00 225.00
C 74.00 225.00 74.16 225.56 74.00 226.00
C 72.17 231.08 67.96 235.86 65.00 240.00
C 63.44 242.72 62.21 245.20 61.00 248.00
C 59.38 251.75 57.02 254.83 55.00 258.00
C 52.15 263.58 49.10 269.18 47.00 275.00
C 45.70 278.61 43.84 281.84 42.00 285.00
C 20.69 334.37 2.00 389.79 2.00 445.00
C 2.00 448.42 1.26 452.31 1.00 455.00
C 1.00 458.00 1.00 461.00 1.00 464.00
C 1.00 475.33 1.00 486.67 1.00 498.00
C 1.00 501.33 1.00 504.67 1.00 508.00
C 1.23 510.42 2.00 513.91 2.00 517.00
C 2.00 543.77 8.20 569.65 14.00 595.00
C 15.20 598.38 16.38 602.11 17.00 606.00
C 21.32 633.18 34.16 658.89 45.00 684.00
C 49.52 691.78 54.63 700.42 58.00 709.00
C 58.17 709.43 58.00 710.00 58.00 710.00
C 60.99 711.87 62.52 716.86 64.00 720.00
C 66.60 725.50 69.73 730.72 73.00 736.00
C 78.60 743.24 84.08 751.08 89.00 759.00
C 89.22 759.36 89.00 760.00 89.00 760.00
C 93.38 762.86 97.31 769.57 100.00 774.00
C 102.26 777.73 105.02 781.52 108.00 785.00
C 111.37 788.37 115.88 791.66 118.00 796.00
C 118.20 796.40 118.00 797.00 118.00 797.00
C 120.96 799.07 125.41 802.75 127.00 806.00
C 127.20 806.40 127.00 807.00 127.00 807.00
C 136.98 813.97 145.94 825.03 154.70 833.30 C 163.45 841.58 176.28 849.37 183.00 859.00
C 183.40 859.20 184.00 859.00 184.00 859.00
C 189.48 862.41 194.27 866.92 199.00 871.00
C 201.77 872.90 204.21 874.50 207.00 876.00
C 212.07 878.74 216.63 882.62 221.00 886.00
C 224.07 887.90 226.92 889.42 230.00 891.00
C 233.34 892.71 236.16 894.97 239.00 897.00
C 241.11 898.21 242.89 899.02 245.00 900.00
C 248.56 901.64 251.81 904.04 255.00 906.00
C 256.68 906.82 258.36 907.28 260.00 908.00
C 264.54 909.98 268.90 912.75 273.00 915.00
C 274.07 915.40 274.91 915.65 276.00 916.00
C 279.67 917.17 282.85 919.17 286.00 921.00
C 334.03 941.73 384.75 955.96 437.00 961.00
L 516.00 961.00
C 518.43 959.26 522.82 960.00 526.00 960.00
C 549.20 960.00 571.98 954.04 594.00 949.00
C 596.54 948.10 598.98 947.48 602.00 947.00
C 631.97 942.23 660.33 927.94 688.00 916.00
C 693.98 912.52 700.46 908.82 707.00 906.00
C 718.27 901.14 728.51 894.50 739.00 888.00
C 745.31 883.12 752.08 878.29 759.00 874.00
C 759.36 873.78 760.00 874.00 760.00 874.00
C 764.84 866.57 776.90 860.41 784.00 855.00
C 784.32 854.76 785.00 855.00 785.00 855.00
C 787.39 851.58 792.27 846.83 796.00 845.00
C 796.40 844.80 797.00 845.00 797.00 845.00
C 802.33 837.37 810.67 831.87 817.25 825.25 C 823.83 818.63 830.43 810.29 838.00 805.00
C 838.20 804.60 838.00 804.00 838.00 804.00
C 842.88 794.03 855.30 782.70 863.00 775.00
C 866.38 770.71 869.31 766.44 872.00 762.00
C 874.07 758.58 876.61 755.94 879.00 753.00
C 887.47 739.87 896.84 727.27 903.00 713.00
C 905.19 707.93 908.20 703.38 911.00 699.00
C 912.54 695.99 913.88 693.12 915.00 690.00
C 916.30 686.39 918.16 683.16 920.00 680.00
C 941.49 630.21 961.00 574.76 961.00 519.00
C 961.00 515.58 961.74 511.68 962.00 509.00
C 962.00 506.67 962.00 504.33 962.00 502.00
C 962.00 488.33 962.00 474.67 962.00 461.00
C 962.00 458.67 962.00 456.33 962.00 454.00
C 961.71 450.93 961.00 446.75 961.00 443.00
C 961.00 408.26 951.69 373.38 942.00 341.00
C 940.83 338.13 939.76 335.31 939.00 332.00
C 935.43 316.39 928.34 301.69 922.00 287.00
C 920.18 283.87 917.87 280.75 917.00 277.00
C 917.00 277.00 917.11 276.47 917.00 276.00
C 913.01 271.03 909.35 263.11 907.00 257.00
C 906.60 255.97 906.47 255.05 906.00 254.00
C 903.90 250.78 901.67 247.61 900.00 244.00
C 897.44 238.46 894.28 233.30 891.00 228.00
C 888.52 224.79 886.01 221.72 884.00 218.00
C 882.74 215.67 881.53 213.37 880.00 211.00
C 877.57 208.01 875.10 205.38 873.00 202.00
C 873.00 202.00 873.22 201.36 873.00 201.00
C 863.92 195.08 860.17 182.19 852.23 174.77 C 844.29 167.35 837.71 157.71 830.00 150.00
C 824.41 144.42 818.54 138.54 813.00 133.00
C 806.91 126.91 798.92 122.03 794.00 115.00
C 794.00 115.00 793.40 115.20 793.00 115.00
C 787.41 112.27 782.28 106.28 778.00 102.00
C 776.06 100.47 773.95 99.18 772.00 98.00
C 768.61 95.94 764.16 93.32 762.00 90.00
C 762.00 90.00 761.36 90.22 761.00 90.00
C 757.61 87.89 754.94 85.40 752.00 83.00
C 749.68 81.50 747.29 80.24 745.00 79.00
C 741.26 76.98 738.18 74.46 735.00 72.00
C 729.08 68.33 723.31 64.72 717.00 62.00
C 713.44 60.46 707.05 58.29 705.00 55.00
C 705.00 55.00 704.43 55.17 704.00 55.00
C 698.76 52.94 693.63 49.69 689.00 47.00
C 670.92 39.19 653.20 29.40 634.00 25.00
C 630.73 24.25 627.84 23.15 625.00 22.00
C 591.16 11.87 555.33 2.00 519.00 2.00
C 515.58 2.00 511.68 1.26 509.00 1.00
C 506.67 1.00 504.33 1.00 502.00 1.00
C 488.33 1.00 474.67 1.00 461.00 1.00
C 458.33 1.00 455.67 1.00 453.00 1.00
C 450.64 1.23 447.10 2.00 444.00 2.00
M 558.00 419.00 
C 567.92 404.52 583.05 420.89 589.00 431.00
C 595.87 417.44 608.60 432.57 605.00 443.00
C 611.34 435.05 623.44 421.78 633.75 429.25 C 644.05 436.73 650.10 448.75 644.00 460.00
C 657.61 471.89 637.47 474.41 629.00 473.00
C 633.73 477.54 645.80 472.16 646.97 482.03 C 648.14 491.89 628.31 483.48 630.00 493.00
C 636.42 492.32 649.29 492.67 647.67 501.67 C 646.04 510.67 630.37 503.41 629.08 511.08 C 627.80 518.76 628.00 526.49 618.97 528.97 C 609.95 531.46 603.56 527.86 604.00 518.00
C 600.22 518.04 596.45 518.28 593.00 517.00
C 596.32 535.29 574.72 537.01 563.00 531.00
C 552.33 543.91 543.31 517.34 548.00 508.00
C 533.56 511.29 533.54 495.31 535.00 485.00 C 536.46 474.69 532.89 462.27 537.00 454.00
C 533.03 447.88 533.62 442.27 539.30 436.30 C 544.98 430.33 541.02 425.09 541.93 417.93 C 542.83 410.77 556.19 411.98 558.00 419.00
M 479.00 458.00 
C 481.04 461.38 485.57 463.49 485.00 468.00
C 496.08 459.67 516.75 449.61 525.77 466.23 C 534.79 482.85 517.82 475.70 512.00 481.00
C 526.29 488.59 518.15 505.80 521.00 519.00 C 523.85 532.20 508.35 545.80 496.93 536.07 C 485.50 526.34 474.68 537.52 466.00 524.00
C 450.38 529.20 453.43 508.31 450.00 500.00
C 447.38 506.11 454.63 525.27 445.00 526.00 C 435.36 526.72 431.40 517.85 425.00 513.00
C 417.93 517.10 401.92 506.51 412.00 500.00
C 410.70 497.03 406.23 495.78 407.00 492.00
C 409.52 491.93 414.25 492.93 414.00 489.00
C 419.04 488.54 423.24 490.75 428.00 489.00
C 422.05 486.69 410.87 489.76 408.00 482.00
C 410.17 480.77 412.68 480.78 415.00 480.00
C 408.87 476.92 406.22 471.63 413.00 467.00
C 401.48 463.90 416.83 455.53 421.00 452.00
C 412.71 445.95 418.28 441.83 424.08 435.08 C 429.88 428.33 439.98 432.43 447.00 432.00 C 454.03 431.56 462.57 423.52 468.75 432.25 C 474.93 440.98 469.26 449.28 460.00 450.00
C 462.14 451.66 464.26 454.05 467.00 455.00
C 471.36 447.02 479.69 441.42 488.00 439.00
C 470.59 428.10 489.91 415.07 502.00 417.00 C 514.09 418.93 527.98 436.37 518.25 446.25 C 508.51 456.13 488.91 447.09 479.00 458.00
M 121.00 521.00 
C 118.46 517.91 119.96 496.02 121.00 496.00
C 124.89 495.92 130.32 506.36 135.03 505.98 C 139.73 505.59 153.31 509.93 150.00 499.00 C 146.68 488.07 131.43 484.37 124.75 476.25 C 118.07 468.12 118.40 468.08 116.02 459.98 C 113.64 451.88 116.96 445.88 120.25 440.25 C 123.55 434.63 128.59 432.40 134.08 430.08 C 139.56 427.75 149.13 425.84 155.00 427.00 C 160.87 428.16 169.94 426.88 173.75 432.25 C 177.56 437.63 173.32 449.74 175.00 456.00
C 165.57 450.58 163.77 443.42 151.00 444.00 C 138.22 444.59 144.29 459.19 153.70 462.30 C 163.10 465.41 168.39 471.62 173.77 479.23 C 179.15 486.84 180.04 500.66 175.08 509.08 C 170.11 517.49 162.69 522.49 152.98 523.98 C 143.26 525.46 130.04 526.02 121.00 521.00
M 716.00 457.00 
C 710.27 451.65 697.15 438.11 688.75 446.75 C 680.36 455.40 695.26 463.84 702.70 468.30 C 710.13 472.77 718.93 481.56 720.33 491.67 C 721.73 501.79 719.32 513.52 708.25 519.25 C 697.19 524.98 687.64 525.44 673.98 524.02 C 660.31 522.61 660.62 508.62 661.00 496.00
C 670.79 501.74 671.27 506.64 684.00 508.00 C 696.73 509.36 694.54 494.85 684.92 491.08 C 675.29 487.32 670.85 482.47 664.70 475.30 C 658.54 468.14 655.92 457.49 659.32 448.32 C 662.72 439.15 667.07 433.51 677.03 430.03 C 686.98 426.54 696.82 426.47 708.22 428.78 C 719.62 431.08 715.65 446.28 716.00 457.00
M 214.00 439.00 
C 213.19 447.93 214.61 457.05 214.00 466.00
C 220.33 466.00 226.67 466.00 233.00 466.00
C 236.36 461.20 230.81 450.67 233.00 445.00 C 235.19 439.33 230.40 432.95 229.00 428.00
C 240.67 428.00 252.33 428.00 264.00 428.00
C 258.03 442.37 259.68 460.01 260.00 476.00 C 260.32 491.99 256.78 510.33 265.00 524.00
C 253.00 524.00 241.00 524.00 229.00 524.00
C 235.62 512.17 232.17 497.45 233.00 484.00
C 226.67 484.00 220.33 484.00 214.00 484.00
C 214.47 493.30 213.37 502.71 214.00 512.00
C 214.30 516.42 215.76 520.19 218.00 524.00
C 206.00 524.00 194.00 524.00 182.00 524.00
C 188.75 509.91 186.00 491.88 186.00 476.00 C 186.00 460.12 188.75 442.07 182.00 428.00
C 194.00 428.00 206.00 428.00 218.00 428.00
C 216.55 431.66 213.50 434.75 214.00 439.00
M 302.00 440.00 
C 301.17 452.15 301.84 464.82 302.00 477.00 C 302.16 489.18 300.76 501.90 302.00 514.00
C 302.81 517.66 303.70 520.88 306.00 524.00
C 294.00 524.00 282.00 524.00 270.00 524.00
C 276.77 509.92 273.97 491.88 274.00 476.00 C 274.03 460.12 276.68 441.92 270.00 428.00
C 282.00 428.00 294.00 428.00 306.00 428.00
C 304.68 431.91 301.42 435.36 302.00 440.00
M 396.00 439.00 
C 394.89 451.23 395.96 463.67 396.00 476.00 C 396.04 488.33 394.88 501.68 396.00 514.00
C 396.73 517.50 397.16 520.81 399.00 524.00
C 390.44 522.05 373.71 527.96 368.08 520.92 C 362.46 513.88 359.92 506.27 354.75 499.25 C 349.57 492.24 346.79 484.27 341.00 478.00
C 342.36 493.29 337.57 510.55 345.00 524.00
C 334.00 524.00 323.00 524.00 312.00 524.00
C 312.36 520.47 315.83 517.90 315.00 514.00
C 316.06 502.34 315.26 489.70 315.00 478.00 C 314.74 466.30 316.76 453.53 315.00 442.00
C 313.62 437.11 310.30 432.93 309.00 428.00
C 321.03 426.74 335.34 426.14 338.77 437.23 C 342.21 448.31 349.67 452.26 354.25 461.75 C 358.84 471.24 364.42 477.66 370.00 486.00
C 367.99 466.87 374.42 445.28 366.00 428.00
C 377.33 428.00 388.67 428.00 400.00 428.00
C 398.55 431.66 395.50 434.75 396.00 439.00
M 755.00 446.00 
C 755.00 453.00 755.00 460.00 755.00 467.00
C 761.50 467.66 769.33 465.68 775.00 468.00
C 776.14 469.95 770.75 474.68 770.23 477.23 C 769.71 479.78 765.57 484.10 765.00 487.00
C 761.56 486.39 758.70 483.83 755.00 484.00
C 755.00 491.33 755.00 498.67 755.00 506.00
C 758.51 508.46 765.13 504.87 769.07 505.07 C 773.01 505.28 778.86 502.96 783.00 503.00
C 781.29 510.31 777.06 516.79 775.00 524.00
C 757.67 524.00 740.33 524.00 723.00 524.00
C 729.72 510.07 726.98 491.89 727.00 476.00 C 727.02 460.11 729.64 442.14 723.00 428.00
C 741.00 428.00 759.00 428.00 777.00 428.00
C 775.72 435.06 772.55 437.38 770.69 444.69 C 768.84 452.01 760.90 445.05 755.00 446.00
M 809.00 428.00 
C 816.55 449.37 832.12 467.93 844.00 487.00
C 842.39 467.41 847.82 445.88 840.00 428.00
C 851.00 428.00 862.00 428.00 873.00 428.00
C 866.68 442.21 868.93 459.03 869.00 475.00 C 869.07 490.97 866.90 509.23 872.00 524.00
C 863.58 522.05 846.43 528.02 841.23 520.77 C 836.03 513.52 833.25 506.86 828.25 499.75 C 823.25 492.65 820.14 485.00 815.00 478.00
C 813.60 492.55 811.95 510.28 818.00 524.00
C 807.00 524.00 796.00 524.00 785.00 524.00
C 791.98 509.71 788.54 491.19 789.00 475.00 C 789.46 458.81 791.43 441.38 782.00 428.00
C 791.00 428.00 800.00 428.00 809.00 428.00
M 538.00 510.00 
C 540.87 518.23 547.94 542.51 534.78 538.22 C 521.62 533.94 526.89 508.19 538.00 510.00 Z"/>
</g>
<g fill="#ADABAC" fill-opacity="1.00" stroke="None">
<path d="
M 519.00 2.00 
C 516.31 1.74 512.43 1.00 509.00 1.00
C 511.68 1.26 515.58 2.00 519.00 2.00 Z"/>
</g>
<g fill="#BCBABA" fill-opacity="1.00" stroke="None">
<path d="
M 634.00 25.00 
C 631.33 24.13 627.98 22.89 625.00 22.00
C 627.84 23.15 630.73 24.25 634.00 25.00 Z"/>
</g>
<g fill="#BAB9B9" fill-opacity="1.00" stroke="None">
<path d="
M 324.00 27.00 
C 327.85 25.97 331.58 24.39 335.00 23.00
C 331.13 24.16 327.50 25.68 324.00 27.00 Z"/>
</g>
<g fill="#AEADAD" fill-opacity="1.00" stroke="None">
<path d="
M 273.00 48.00 
C 277.31 46.45 281.18 44.22 285.00 42.00
C 280.90 43.77 276.86 46.09 273.00 48.00 Z"/>
</g>
<g fill="#D1D0D0" fill-opacity="1.00" stroke="None">
<path d="
M 704.00 55.00 
C 701.38 50.80 693.32 48.86 689.00 47.00
C 693.63 49.69 698.76 52.94 704.00 55.00 Z"/>
</g>
<g fill="#B2B1B1" fill-opacity="1.00" stroke="None">
<path d="
M 248.00 61.00 
C 252.46 59.25 256.22 56.41 260.00 54.00
C 256.40 55.84 250.18 57.52 248.00 61.00 Z"/>
</g>
<g fill="#B2B1B1" fill-opacity="1.00" stroke="None">
<path d="
M 717.00 62.00 
C 713.18 59.91 709.43 56.74 705.00 55.00
C 707.05 58.29 713.44 60.46 717.00 62.00 Z"/>
</g>
<g fill="#C1C0C0" fill-opacity="1.00" stroke="None">
<path d="
M 234.00 69.00 
C 237.71 67.24 244.84 64.46 247.00 61.00
C 242.08 62.93 238.24 66.48 234.00 69.00 Z"/>
</g>
<g fill="#C4C3C3" fill-opacity="1.00" stroke="None">
<path d="
M 745.00 79.00 
C 741.78 76.82 738.51 74.17 735.00 72.00
C 738.18 74.46 741.26 76.98 745.00 79.00 Z"/>
</g>
<g fill="#C5C4C4" fill-opacity="1.00" stroke="None">
<path d="
M 205.00 88.00 
C 212.03 84.04 218.77 78.83 225.00 74.00
C 218.00 78.33 211.58 83.30 205.00 88.00 Z"/>
</g>
<g fill="#C5C4C5" fill-opacity="1.00" stroke="None">
<path d="
M 761.00 90.00 
C 758.94 86.85 755.13 85.02 752.00 83.00
C 754.94 85.40 757.61 87.89 761.00 90.00 Z"/>
</g>
<g fill="#CBCACB" fill-opacity="1.00" stroke="None">
<path d="
M 772.00 98.00 
C 768.68 95.46 765.74 92.33 762.00 90.00
C 764.16 93.32 768.61 95.94 772.00 98.00 Z"/>
</g>
<g fill="#BCBBBB" fill-opacity="1.00" stroke="None">
<path d="
M 793.00 115.00 
C 789.29 109.70 783.03 105.97 778.00 102.00
C 782.28 106.28 787.41 112.27 793.00 115.00 Z"/>
</g>
<g fill="#CAC9C9" fill-opacity="1.00" stroke="None">
<path d="
M 169.00 116.00 
C 173.10 113.13 176.49 109.51 180.00 106.00
C 176.30 109.16 172.75 112.92 169.00 116.00 Z"/>
</g>
<g fill="#BEBDBD" fill-opacity="1.00" stroke="None">
<path d="
M 813.00 133.00 
C 808.97 127.22 800.34 118.10 794.00 115.00
C 798.92 122.03 806.91 126.91 813.00 133.00 Z"/>
</g>
<g fill="#B7B5B6" fill-opacity="1.00" stroke="None">
<path d="
M 106.00 180.00 
C 124.14 161.86 141.41 141.59 160.00 123.00
C 139.99 140.10 122.92 160.20 106.00 180.00 Z"/>
</g>
<g fill="#625F60" fill-opacity="1.00" stroke="None">
<path d="
M 830.00 150.00 
C 830.00 150.00 830.20 149.40 830.00 149.00
C 824.43 145.10 817.86 138.51 814.00 133.00
C 814.00 133.00 813.16 133.23 813.00 133.00
C 818.54 138.54 824.41 144.42 830.00 150.00 Z"/>
</g>
<g fill="#F8F8F8" fill-opacity="1.00" stroke="None">
<path d="
M 830.00 149.00 
C 827.77 144.45 818.61 135.26 814.00 133.00
C 817.86 138.51 824.43 145.10 830.00 149.00 Z"/>
</g>
<g fill="#BDBCBC" fill-opacity="1.00" stroke="None">
<path d="
M 873.00 201.00 
C 867.30 191.86 859.90 182.32 852.75 174.25 C 845.61 166.17 838.96 156.26 830.00 150.00
C 837.71 157.71 844.29 167.35 852.23 174.77 C 860.17 182.19 863.92 195.08 873.00 201.00 Z"/>
</g>
<g fill="#BAB9B9" fill-opacity="1.00" stroke="None">
<path d="
M 88.00 204.00 
C 92.36 201.16 96.29 194.47 99.00 190.00
C 95.46 194.62 91.19 198.87 88.00 204.00 Z"/>
</g>
<g fill="#C2C1C1" fill-opacity="1.00" stroke="None">
<path d="
M 880.00 211.00 
C 878.00 207.90 876.18 204.07 873.00 202.00
C 875.10 205.38 877.57 208.01 880.00 211.00 Z"/>
</g>
<g fill="#C7C7C7" fill-opacity="1.00" stroke="None">
<path d="
M 74.00 225.00 
C 79.49 219.74 83.89 211.60 88.00 205.00
C 82.98 208.27 76.05 219.32 74.00 225.00 Z"/>
</g>
<g fill="#C0BFBF" fill-opacity="1.00" stroke="None">
<path d="
M 891.00 228.00 
C 888.84 224.50 886.21 221.25 884.00 218.00
C 886.01 221.72 888.52 224.79 891.00 228.00 Z"/>
</g>
<g fill="#C1C0C0" fill-opacity="1.00" stroke="None">
<path d="
M 65.00 240.00 
C 67.96 235.86 72.17 231.08 74.00 226.00
C 70.01 229.81 67.78 235.16 65.00 240.00 Z"/>
</g>
<g fill="#B4B2B3" fill-opacity="1.00" stroke="None">
<path d="
M 906.00 254.00 
C 904.35 250.33 901.89 247.29 900.00 244.00
C 901.67 247.61 903.90 250.78 906.00 254.00 Z"/>
</g>
<g fill="#BEBCBD" fill-opacity="1.00" stroke="None">
<path d="
M 55.00 258.00 
C 57.02 254.83 59.38 251.75 61.00 248.00
C 59.29 251.13 56.78 254.52 55.00 258.00 Z"/>
</g>
<g fill="#CFCFCF" fill-opacity="1.00" stroke="None">
<path d="
M 917.00 276.00 
C 915.36 269.03 910.33 262.88 907.00 257.00
C 909.35 263.11 913.01 271.03 917.00 276.00 Z"/>
</g>
<g fill="#BCBABB" fill-opacity="1.00" stroke="None">
<path d="
M 42.00 285.00 
C 43.84 281.84 45.70 278.61 47.00 275.00
C 45.45 278.14 43.46 281.61 42.00 285.00 Z"/>
</g>
<g fill="#B1AFB0" fill-opacity="1.00" stroke="None">
<path d="
M 922.00 287.00 
C 920.50 283.54 919.35 279.93 917.00 277.00
C 917.87 280.75 920.18 283.87 922.00 287.00 Z"/>
</g>
<g fill="#BCBBBB" fill-opacity="1.00" stroke="None">
<path d="
M 942.00 341.00 
C 941.10 337.98 939.88 334.72 939.00 332.00
C 939.76 335.31 940.83 338.13 942.00 341.00 Z"/>
</g>
<g fill="#FBFBFB" fill-opacity="1.00" stroke="None">
<path d="
M 558.00 419.00 
C 556.19 411.98 542.83 410.77 541.93 417.93 C 541.02 425.09 544.98 430.33 539.30 436.30 C 533.62 442.27 533.03 447.88 537.00 454.00
C 532.89 462.27 536.46 474.69 535.00 485.00 C 533.54 495.31 533.56 511.29 548.00 508.00
C 543.31 517.34 552.33 543.91 563.00 531.00
C 574.72 537.01 596.32 535.29 593.00 517.00
C 596.45 518.28 600.22 518.04 604.00 518.00
C 603.56 527.86 609.95 531.46 618.97 528.97 C 628.00 526.49 627.80 518.76 629.08 511.08 C 630.37 503.41 646.04 510.67 647.67 501.67 C 649.29 492.67 636.42 492.32 630.00 493.00
C 628.31 483.48 648.14 491.89 646.97 482.03 C 645.80 472.16 633.73 477.54 629.00 473.00
C 637.47 474.41 657.61 471.89 644.00 460.00
C 650.10 448.75 644.05 436.73 633.75 429.25 C 623.44 421.78 611.34 435.05 605.00 443.00
C 608.60 432.57 595.87 417.44 589.00 431.00
C 583.05 420.89 567.92 404.52 558.00 419.00
M 570.00 429.00 
C 567.12 436.34 562.40 444.95 555.00 449.00
C 558.33 441.90 561.97 431.45 570.00 429.00
M 611.00 454.00 
C 612.44 450.39 623.15 438.05 626.74 442.26 C 630.34 446.47 615.86 456.93 611.00 454.00
M 590.00 443.00 
C 590.56 449.35 594.33 454.56 597.00 460.00
C 588.89 461.30 578.82 447.07 590.00 443.00
M 568.00 468.00 
C 566.58 454.89 579.70 467.85 568.00 468.00
M 550.00 472.00 
C 550.52 474.83 549.88 478.95 546.00 478.00
C 545.48 475.17 546.12 471.05 550.00 472.00
M 605.00 477.00 
C 600.82 479.16 596.37 480.42 592.00 482.00
C 588.73 472.41 600.04 475.88 605.00 477.00
M 573.00 484.00 
C 575.21 496.44 561.27 484.53 573.00 484.00
M 592.00 495.00 
C 589.87 485.88 600.48 493.69 592.00 495.00
M 548.00 497.00 
C 543.48 489.86 553.90 490.57 548.00 497.00
M 605.00 494.00 
C 606.96 500.32 602.02 502.67 597.00 504.00
C 596.99 499.54 602.07 496.73 605.00 494.00
M 584.00 503.00 
C 589.81 497.86 589.95 507.75 584.00 503.00
M 575.00 504.00 
C 572.70 506.12 570.49 507.95 568.00 505.00
C 569.57 504.08 573.63 502.57 575.00 504.00
M 560.00 507.00 
C 561.14 512.79 560.80 518.70 567.08 521.92 C 573.36 525.14 574.64 514.59 575.00 510.00
C 582.52 518.60 572.15 529.22 562.00 526.00
C 562.13 519.82 549.71 508.04 560.00 507.00 Z"/>
</g>
<g fill="#FBFBFB" fill-opacity="1.00" stroke="None">
<path d="
M 479.00 458.00 
C 488.91 447.09 508.51 456.13 518.25 446.25 C 527.98 436.37 514.09 418.93 502.00 417.00 C 489.91 415.07 470.59 428.10 488.00 439.00
C 479.69 441.42 471.36 447.02 467.00 455.00
C 464.26 454.05 462.14 451.66 460.00 450.00
C 469.26 449.28 474.93 440.98 468.75 432.25 C 462.57 423.52 454.03 431.56 447.00 432.00 C 439.98 432.43 429.88 428.33 424.08 435.08 C 418.28 441.83 412.71 445.95 421.00 452.00
C 416.83 455.53 401.48 463.90 413.00 467.00
C 406.22 471.63 408.87 476.92 415.00 480.00
C 412.68 480.78 410.17 480.77 408.00 482.00
C 410.87 489.76 422.05 486.69 428.00 489.00
C 423.24 490.75 419.04 488.54 414.00 489.00
C 414.25 492.93 409.52 491.93 407.00 492.00
C 406.23 495.78 410.70 497.03 412.00 500.00
C 401.92 506.51 417.93 517.10 425.00 513.00
C 431.40 517.85 435.36 526.72 445.00 526.00 C 454.63 525.27 447.38 506.11 450.00 500.00
C 453.43 508.31 450.38 529.20 466.00 524.00
C 474.68 537.52 485.50 526.34 496.93 536.07 C 508.35 545.80 523.85 532.20 521.00 519.00 C 518.15 505.80 526.29 488.59 512.00 481.00
C 517.82 475.70 534.79 482.85 525.77 466.23 C 516.75 449.61 496.08 459.67 485.00 468.00
C 485.57 463.49 481.04 461.38 479.00 458.00
M 446.00 460.00 
C 443.96 465.12 438.46 469.01 434.00 472.00
C 435.61 466.76 438.94 458.69 446.00 460.00
M 468.00 470.00 
C 465.46 469.04 464.11 466.20 466.00 464.00
C 468.71 464.77 467.86 467.89 468.00 470.00
M 466.00 487.00 
C 460.21 483.68 451.47 485.56 446.00 485.00
C 450.70 482.01 466.83 477.87 466.00 487.00
M 495.00 500.00 
C 495.24 502.52 498.06 510.86 495.00 513.00
C 493.21 514.25 489.01 512.06 487.00 513.00
C 487.00 509.33 487.00 505.67 487.00 502.00
C 486.72 499.06 486.58 495.93 487.00 493.00
C 487.14 489.43 489.07 482.92 493.23 485.79 C 497.39 488.65 495.00 495.90 495.00 500.00
M 465.00 509.00 
C 464.89 505.00 460.82 502.60 460.00 499.00
C 466.66 496.56 467.47 505.53 465.00 509.00
M 430.00 506.00 
C 418.78 506.79 432.06 493.87 430.00 506.00 Z"/>
</g>
<g fill="#FBFBFB" fill-opacity="1.00" stroke="None">
<path d="
M 121.00 496.00 
C 123.24 502.84 117.49 514.83 121.00 521.00
C 130.04 526.02 143.26 525.46 152.98 523.98 C 162.69 522.49 170.11 517.49 175.08 509.08 C 180.04 500.66 179.15 486.84 173.77 479.23 C 168.39 471.62 163.10 465.41 153.70 462.30 C 144.29 459.19 138.22 444.59 151.00 444.00 C 163.77 443.42 165.57 450.58 175.00 456.00
C 173.32 449.74 177.56 437.63 173.75 432.25 C 169.94 426.88 160.87 428.16 155.00 427.00 C 149.13 425.84 139.56 427.75 134.08 430.08 C 128.59 432.40 123.55 434.63 120.25 440.25 C 116.96 445.88 113.64 451.88 116.02 459.98 C 118.40 468.08 118.07 468.12 124.75 476.25 C 131.43 484.37 146.68 488.07 150.00 499.00 C 153.31 509.93 139.73 505.59 135.03 505.98 C 130.32 506.36 124.89 495.92 121.00 496.00 Z"/>
</g>
<g fill="#FBFBFB" fill-opacity="1.00" stroke="None">
<path d="
M 716.00 457.00 
C 715.65 446.28 719.62 431.08 708.22 428.78 C 696.82 426.47 686.98 426.54 677.03 430.03 C 667.07 433.51 662.72 439.15 659.32 448.32 C 655.92 457.49 658.54 468.14 664.70 475.30 C 670.85 482.47 675.29 487.32 684.92 491.08 C 694.54 494.85 696.73 509.36 684.00 508.00 C 671.27 506.64 670.79 501.74 661.00 496.00
C 660.62 508.62 660.31 522.61 673.98 524.02 C 687.64 525.44 697.19 524.98 708.25 519.25 C 719.32 513.52 721.73 501.79 720.33 491.67 C 718.93 481.56 710.13 472.77 702.70 468.30 C 695.26 463.84 680.36 455.40 688.75 446.75 C 697.15 438.11 710.27 451.65 716.00 457.00 Z"/>
</g>
<g fill="#FAFAFA" fill-opacity="1.00" stroke="None">
<path d="
M 214.00 512.00 
C 213.41 508.69 212.03 501.80 213.00 498.00 C 213.97 494.20 210.81 486.23 214.00 484.00
C 220.33 484.00 226.67 484.00 233.00 484.00
C 232.17 497.45 235.62 512.17 229.00 524.00
C 241.00 524.00 253.00 524.00 265.00 524.00
C 256.78 510.33 260.32 491.99 260.00 476.00 C 259.68 460.01 258.03 442.37 264.00 428.00
C 252.33 428.00 240.67 428.00 229.00 428.00
C 230.40 432.95 235.19 439.33 233.00 445.00 C 230.81 450.67 236.36 461.20 233.00 466.00
C 231.21 468.56 212.42 469.67 213.01 462.99 C 213.60 456.32 212.69 445.34 214.00 439.00
C 213.50 434.75 216.55 431.66 218.00 428.00
C 206.00 428.00 194.00 428.00 182.00 428.00
C 188.75 442.07 186.00 460.12 186.00 476.00 C 186.00 491.88 188.75 509.91 182.00 524.00
C 194.00 524.00 206.00 524.00 218.00 524.00
C 215.76 520.19 214.30 516.42 214.00 512.00 Z"/>
</g>
<g fill="#FAFAFA" fill-opacity="1.00" stroke="None">
<path d="
M 302.00 514.00 
C 299.52 502.80 301.18 489.03 301.00 477.00 C 300.82 464.97 300.00 451.18 302.00 440.00
C 301.42 435.36 304.68 431.91 306.00 428.00
C 294.00 428.00 282.00 428.00 270.00 428.00
C 276.68 441.92 274.03 460.12 274.00 476.00 C 273.97 491.88 276.77 509.92 270.00 524.00
C 282.00 524.00 294.00 524.00 306.00 524.00
C 303.70 520.88 302.81 517.66 302.00 514.00 Z"/>
</g>
<g fill="#FBFBFB" fill-opacity="1.00" stroke="None">
<path d="
M 315.00 442.00 
C 317.99 452.57 315.70 466.49 316.00 478.00 C 316.30 489.51 317.20 503.36 315.00 514.00
C 315.83 517.90 312.36 520.47 312.00 524.00
C 323.00 524.00 334.00 524.00 345.00 524.00
C 337.57 510.55 342.36 493.29 341.00 478.00
C 346.79 484.27 349.57 492.24 354.75 499.25 C 359.92 506.27 362.46 513.88 368.08 520.92 C 373.71 527.96 390.44 522.05 399.00 524.00
C 397.16 520.81 396.73 517.50 396.00 514.00
C 393.66 502.70 394.97 489.16 395.00 477.00 C 395.03 464.84 393.66 450.32 396.00 439.00
C 395.50 434.75 398.55 431.66 400.00 428.00
C 388.67 428.00 377.33 428.00 366.00 428.00
C 374.42 445.28 367.99 466.87 370.00 486.00
C 364.42 477.66 358.84 471.24 354.25 461.75 C 349.67 452.26 342.21 448.31 338.77 437.23 C 335.34 426.14 321.03 426.74 309.00 428.00
C 310.30 432.93 313.62 437.11 315.00 442.00 Z"/>
</g>
<g fill="#FAFAFA" fill-opacity="1.00" stroke="None">
<path d="
M 755.00 506.00 
C 752.87 504.51 752.88 485.37 755.00 484.00
C 758.70 483.83 761.56 486.39 765.00 487.00
C 765.57 484.10 769.71 479.78 770.23 477.23 C 770.75 474.68 776.14 469.95 775.00 468.00
C 771.35 466.99 756.17 469.90 754.26 466.74 C 752.35 463.59 753.02 447.35 755.00 446.00
C 760.90 445.05 768.84 452.01 770.69 444.69 C 772.55 437.38 775.72 435.06 777.00 428.00
C 759.00 428.00 741.00 428.00 723.00 428.00
C 729.64 442.14 727.02 460.11 727.00 476.00 C 726.98 491.89 729.72 510.07 723.00 524.00
C 740.33 524.00 757.67 524.00 775.00 524.00
C 777.06 516.79 781.29 510.31 783.00 503.00
C 778.86 502.96 773.01 505.28 769.07 505.07 C 765.13 504.87 758.51 508.46 755.00 506.00 Z"/>
</g>
<g fill="#FBFBFB" fill-opacity="1.00" stroke="None">
<path d="
M 809.00 428.00 
C 800.00 428.00 791.00 428.00 782.00 428.00
C 791.43 441.38 789.46 458.81 789.00 475.00 C 788.54 491.19 791.98 509.71 785.00 524.00
C 796.00 524.00 807.00 524.00 818.00 524.00
C 811.95 510.28 813.60 492.55 815.00 478.00
C 820.14 485.00 823.25 492.65 828.25 499.75 C 833.25 506.86 836.03 513.52 841.23 520.77 C 846.43 528.02 863.58 522.05 872.00 524.00
C 866.90 509.23 869.07 490.97 869.00 475.00 C 868.93 459.03 866.68 442.21 873.00 428.00
C 862.00 428.00 851.00 428.00 840.00 428.00
C 847.82 445.88 842.39 467.41 844.00 487.00
C 832.12 467.93 816.55 449.37 809.00 428.00 Z"/>
</g>
<g fill="#2C2829" fill-opacity="1.00" stroke="None">
<path d="
M 570.00 429.00 
C 561.97 431.45 558.33 441.90 555.00 449.00
C 562.40 444.95 567.12 436.34 570.00 429.00 Z"/>
</g>
<g fill="#858283" fill-opacity="1.00" stroke="None">
<path d="
M 233.00 466.00 
C 226.67 466.00 220.33 466.00 214.00 466.00
C 214.61 457.05 213.19 447.93 214.00 439.00
C 212.69 445.34 213.60 456.32 213.01 462.99 C 212.42 469.67 231.21 468.56 233.00 466.00 Z"/>
</g>
<g fill="#777475" fill-opacity="1.00" stroke="None">
<path d="
M 396.00 514.00 
C 394.88 501.68 396.04 488.33 396.00 476.00 C 395.96 463.67 394.89 451.23 396.00 439.00
C 393.66 450.32 395.03 464.84 395.00 477.00 C 394.97 489.16 393.66 502.70 396.00 514.00 Z"/>
</g>
<g fill="#848182" fill-opacity="1.00" stroke="None">
<path d="
M 302.00 514.00 
C 300.76 501.90 302.16 489.18 302.00 477.00 C 301.84 464.82 301.17 452.15 302.00 440.00
C 300.00 451.18 300.82 464.97 301.00 477.00 C 301.18 489.03 299.52 502.80 302.00 514.00 Z"/>
</g>
<g fill="#2B2728" fill-opacity="1.00" stroke="None">
<path d="
M 611.00 454.00 
C 615.86 456.93 630.34 446.47 626.74 442.26 C 623.15 438.05 612.44 450.39 611.00 454.00 Z"/>
</g>
<g fill="#767374" fill-opacity="1.00" stroke="None">
<path d="
M 315.00 514.00 
C 317.20 503.36 316.30 489.51 316.00 478.00 C 315.70 466.49 317.99 452.57 315.00 442.00
C 316.76 453.53 314.74 466.30 315.00 478.00 C 315.26 489.70 316.06 502.34 315.00 514.00 Z"/>
</g>
<g fill="#2F2B2C" fill-opacity="1.00" stroke="None">
<path d="
M 590.00 443.00 
C 578.82 447.07 588.89 461.30 597.00 460.00
C 594.33 454.56 590.56 449.35 590.00 443.00 Z"/>
</g>
<g fill="#B0AFAF" fill-opacity="1.00" stroke="None">
<path d="
M 962.00 454.00 
C 962.00 450.25 961.30 446.08 961.00 443.00
C 961.00 446.75 961.71 450.93 962.00 454.00 Z"/>
</g>
<g fill="#B8B7B7" fill-opacity="1.00" stroke="None">
<path d="
M 1.00 455.00 
C 1.26 452.31 2.00 448.42 2.00 445.00
C 1.74 447.69 1.00 451.58 1.00 455.00 Z"/>
</g>
<g fill="#7D7A7B" fill-opacity="1.00" stroke="None">
<path d="
M 775.00 468.00 
C 769.33 465.68 761.50 467.66 755.00 467.00
C 755.00 460.00 755.00 453.00 755.00 446.00
C 753.02 447.35 752.35 463.59 754.26 466.74 C 756.17 469.90 771.35 466.99 775.00 468.00 Z"/>
</g>
<g fill="#2C2829" fill-opacity="1.00" stroke="None">
<path d="
M 446.00 460.00 
C 438.94 458.69 435.61 466.76 434.00 472.00
C 438.46 469.01 443.96 465.12 446.00 460.00 Z"/>
</g>
<g fill="#3A3637" fill-opacity="1.00" stroke="None">
<path d="
M 568.00 468.00 
C 579.70 467.85 566.58 454.89 568.00 468.00 Z"/>
</g>
<g fill="#B8B7B7" fill-opacity="1.00" stroke="None">
<path d="
M 962.00 502.00 
C 962.01 501.93 963.00 502.00 963.00 502.00
L 963.00 461.00
C 963.00 461.00 962.01 461.07 962.00 461.00
C 962.00 474.67 962.00 488.33 962.00 502.00 Z"/>
</g>
<g fill="#CCCBCB" fill-opacity="1.00" stroke="None">
<path d="
M 0.00 498.00 
C 0.50 498.00 1.00 498.00 1.00 498.00
C 1.00 486.67 1.00 475.33 1.00 464.00
C 1.00 464.00 0.50 464.00 0.00 464.00
L 0.00 498.00 Z"/>
</g>
<g fill="#312E2F" fill-opacity="1.00" stroke="None">
<path d="
M 468.00 470.00 
C 467.86 467.89 468.71 464.77 466.00 464.00
C 464.11 466.20 465.46 469.04 468.00 470.00 Z"/>
</g>
<g fill="#464243" fill-opacity="1.00" stroke="None">
<path d="
M 550.00 472.00 
C 546.12 471.05 545.48 475.17 546.00 478.00
C 549.88 478.95 550.52 474.83 550.00 472.00 Z"/>
</g>
<g fill="#2E2A2B" fill-opacity="1.00" stroke="None">
<path d="
M 605.00 477.00 
C 600.04 475.88 588.73 472.41 592.00 482.00
C 596.37 480.42 600.82 479.16 605.00 477.00 Z"/>
</g>
<g fill="#363334" fill-opacity="1.00" stroke="None">
<path d="
M 466.00 487.00 
C 466.83 477.87 450.70 482.01 446.00 485.00
C 451.47 485.56 460.21 483.68 466.00 487.00 Z"/>
</g>
<g fill="#858283" fill-opacity="1.00" stroke="None">
<path d="
M 214.00 512.00 
C 213.37 502.71 214.47 493.30 214.00 484.00
C 210.81 486.23 213.97 494.20 213.00 498.00 C 212.03 501.80 213.41 508.69 214.00 512.00 Z"/>
</g>
<g fill="#403C3D" fill-opacity="1.00" stroke="None">
<path d="
M 573.00 484.00 
C 561.27 484.53 575.21 496.44 573.00 484.00 Z"/>
</g>
<g fill="#848182" fill-opacity="1.00" stroke="None">
<path d="
M 755.00 506.00 
C 755.00 498.67 755.00 491.33 755.00 484.00
C 752.88 485.37 752.87 504.51 755.00 506.00 Z"/>
</g>
<g fill="#242021" fill-opacity="1.00" stroke="None">
<path d="
M 487.00 493.00 
C 486.89 495.99 487.00 499.01 487.00 502.00
C 487.00 505.67 487.00 509.33 487.00 513.00
C 489.01 512.06 493.21 514.25 495.00 513.00
C 495.00 508.67 495.00 504.33 495.00 500.00
C 495.00 495.90 497.39 488.65 493.23 485.79 C 489.07 482.92 487.14 489.43 487.00 493.00 Z"/>
</g>
<g fill="#343031" fill-opacity="1.00" stroke="None">
<path d="
M 592.00 495.00 
C 600.48 493.69 589.87 485.88 592.00 495.00 Z"/>
</g>
<g fill="#2E2A2B" fill-opacity="1.00" stroke="None">
<path d="
M 548.00 497.00 
C 553.90 490.57 543.48 489.86 548.00 497.00 Z"/>
</g>
<g fill="#979596" fill-opacity="1.00" stroke="None">
<path d="
M 487.00 502.00 
C 487.00 499.01 486.89 495.99 487.00 493.00
C 486.58 495.93 486.72 499.06 487.00 502.00 Z"/>
</g>
<g fill="#312D2E" fill-opacity="1.00" stroke="None">
<path d="
M 605.00 494.00 
C 602.07 496.73 596.99 499.54 597.00 504.00
C 602.02 502.67 606.96 500.32 605.00 494.00 Z"/>
</g>
<g fill="#827F80" fill-opacity="1.00" stroke="None">
<path d="
M 121.00 521.00 
C 117.49 514.83 123.24 502.84 121.00 496.00
C 119.96 496.02 118.46 517.91 121.00 521.00 Z"/>
</g>
<g fill="#000000" fill-opacity="0.00" stroke="None">
<path d="
M 0.00 961.00 
L 437.00 961.00
C 384.75 955.96 334.03 941.73 286.00 921.00
C 282.64 919.55 279.13 917.48 276.00 916.00
C 274.91 915.65 274.07 915.40 273.00 915.00
C 268.22 913.19 264.21 910.32 260.00 908.00
C 258.36 907.28 256.68 906.82 255.00 906.00
C 251.42 904.24 248.22 901.85 245.00 900.00
C 242.89 899.02 241.11 898.21 239.00 897.00
C 235.79 895.15 232.89 892.87 230.00 891.00
C 226.92 889.42 224.07 887.90 221.00 886.00
C 216.08 882.95 211.60 879.12 207.00 876.00
C 204.21 874.50 201.77 872.90 199.00 871.00
C 194.21 867.71 187.18 863.89 184.00 859.00
C 184.00 859.00 183.40 859.20 183.00 859.00
C 173.04 854.13 161.70 841.94 153.75 834.25 C 145.81 826.56 131.80 816.77 127.00 807.00
C 127.00 807.00 127.20 806.40 127.00 806.00
C 124.04 803.93 119.59 800.25 118.00 797.00
C 118.00 797.00 118.20 796.40 118.00 796.00
C 113.91 793.14 111.18 788.72 108.00 785.00
C 105.02 781.52 102.26 777.73 100.00 774.00
C 96.43 769.34 92.18 765.11 89.00 760.00
C 89.00 760.00 89.22 759.36 89.00 759.00
C 82.18 754.56 77.22 742.81 73.00 736.00
C 69.73 730.72 66.60 725.50 64.00 720.00
C 62.09 716.78 59.49 713.79 58.00 710.00
C 58.00 710.00 58.17 709.43 58.00 709.00
C 51.90 705.19 47.78 690.45 45.00 684.00
C 34.16 658.89 21.32 633.18 17.00 606.00
C 16.07 602.62 14.87 598.79 14.00 595.00
C 8.20 569.65 2.00 543.77 2.00 517.00
C 1.77 514.58 1.00 511.09 1.00 508.00
C 1.00 504.67 1.00 501.33 1.00 498.00
C 1.00 498.00 0.50 498.00 0.00 498.00
L 0.00 961.00 Z"/>
</g>
<g fill="#353233" fill-opacity="1.00" stroke="None">
<path d="
M 465.00 509.00 
C 467.47 505.53 466.66 496.56 460.00 499.00
C 460.82 502.60 464.89 505.00 465.00 509.00 Z"/>
</g>
<g fill="#423F40" fill-opacity="1.00" stroke="None">
<path d="
M 430.00 506.00 
C 432.06 493.87 418.78 506.79 430.00 506.00 Z"/>
</g>
<g fill="#797677" fill-opacity="1.00" stroke="None">
<path d="
M 495.00 513.00 
C 498.06 510.86 495.24 502.52 495.00 500.00
C 495.00 504.33 495.00 508.67 495.00 513.00 Z"/>
</g>
<g fill="#3A3637" fill-opacity="1.00" stroke="None">
<path d="
M 584.00 503.00 
C 589.95 507.75 589.81 497.86 584.00 503.00 Z"/>
</g>
<g fill="#000000" fill-opacity="0.00" stroke="None">
<path d="
M 962.00 509.00 
C 962.00 512.42 961.26 516.31 961.00 519.00
C 961.00 574.76 941.49 630.21 920.00 680.00
C 918.54 683.39 916.55 686.86 915.00 690.00
C 913.88 693.12 912.54 695.99 911.00 699.00
C 908.54 703.81 905.42 708.56 903.00 713.00
C 896.84 727.27 887.47 739.87 879.00 753.00
C 876.86 756.32 874.27 759.03 872.00 762.00
C 869.31 766.44 866.38 770.71 863.00 775.00
C 855.53 784.47 848.07 796.95 838.00 804.00
C 838.00 804.00 838.20 804.60 838.00 805.00
C 834.31 812.54 824.14 819.17 818.25 825.25 C 812.36 831.32 804.51 841.33 797.00 845.00
C 797.00 845.00 796.40 844.80 796.00 845.00
C 793.48 848.61 788.90 853.10 785.00 855.00
C 785.00 855.00 784.32 854.76 784.00 855.00
C 778.77 862.48 767.63 869.25 760.00 874.00
C 760.00 874.00 759.36 873.78 759.00 874.00
C 755.04 880.07 745.04 884.26 739.00 888.00
C 728.51 894.50 718.27 901.14 707.00 906.00
C 700.87 909.35 694.66 913.13 688.00 916.00
C 660.33 927.94 631.97 942.23 602.00 947.00
C 599.66 947.64 596.73 948.38 594.00 949.00
C 571.98 954.04 549.20 960.00 526.00 960.00
C 526.04 960.00 526.00 961.00 526.00 961.00
L 963.00 961.00
L 963.00 502.00
C 963.00 502.00 962.01 501.93 962.00 502.00
C 962.00 504.33 962.00 506.67 962.00 509.00 Z"/>
</g>
<g fill="#393637" fill-opacity="1.00" stroke="None">
<path d="
M 575.00 504.00 
C 573.63 502.57 569.57 504.08 568.00 505.00
C 570.49 507.95 572.70 506.12 575.00 504.00 Z"/>
</g>
<g fill="#302C2D" fill-opacity="1.00" stroke="None">
<path d="
M 560.00 507.00 
C 549.71 508.04 562.13 519.82 562.00 526.00
C 572.15 529.22 582.52 518.60 575.00 510.00
C 574.64 514.59 573.36 525.14 567.08 521.92 C 560.80 518.70 561.14 512.79 560.00 507.00 Z"/>
</g>
<g fill="#B8B6B6" fill-opacity="1.00" stroke="None">
<path d="
M 2.00 517.00 
C 2.00 513.91 1.23 510.42 1.00 508.00
C 1.00 511.09 1.77 514.58 2.00 517.00 Z"/>
</g>
<g fill="#AFAEAE" fill-opacity="1.00" stroke="None">
<path d="
M 961.00 519.00 
C 961.26 516.31 962.00 512.42 962.00 509.00
C 961.74 511.68 961.00 515.58 961.00 519.00 Z"/>
</g>
<g fill="#F6F6F6" fill-opacity="1.00" stroke="None">
<path d="
M 538.00 510.00 
C 526.89 508.19 521.62 533.94 534.78 538.22 C 547.94 542.51 540.87 518.23 538.00 510.00 Z"/>
</g>
<g fill="#B1B0B0" fill-opacity="1.00" stroke="None">
<path d="
M 17.00 606.00 
C 16.38 602.11 15.20 598.38 14.00 595.00
C 14.87 598.79 16.07 602.62 17.00 606.00 Z"/>
</g>
<g fill="#BBBABA" fill-opacity="1.00" stroke="None">
<path d="
M 915.00 690.00 
C 916.55 686.86 918.54 683.39 920.00 680.00
C 918.16 683.16 916.30 686.39 915.00 690.00 Z"/>
</g>
<g fill="#BEBDBD" fill-opacity="1.00" stroke="None">
<path d="
M 58.00 709.00 
C 54.63 700.42 49.52 691.78 45.00 684.00
C 47.78 690.45 51.90 705.19 58.00 709.00 Z"/>
</g>
<g fill="#B7B6B6" fill-opacity="1.00" stroke="None">
<path d="
M 903.00 713.00 
C 905.42 708.56 908.54 703.81 911.00 699.00
C 908.20 703.38 905.19 707.93 903.00 713.00 Z"/>
</g>
<g fill="#BAB9B9" fill-opacity="1.00" stroke="None">
<path d="
M 64.00 720.00 
C 62.52 716.86 60.99 711.87 58.00 710.00
C 59.49 713.79 62.09 716.78 64.00 720.00 Z"/>
</g>
<g fill="#C4C3C4" fill-opacity="1.00" stroke="None">
<path d="
M 89.00 759.00 
C 84.08 751.08 78.60 743.24 73.00 736.00
C 77.22 742.81 82.18 754.56 89.00 759.00 Z"/>
</g>
<g fill="#C4C3C3" fill-opacity="1.00" stroke="None">
<path d="
M 872.00 762.00 
C 874.27 759.03 876.86 756.32 879.00 753.00
C 876.61 755.94 874.07 758.58 872.00 762.00 Z"/>
</g>
<g fill="#C5C4C4" fill-opacity="1.00" stroke="None">
<path d="
M 100.00 774.00 
C 97.31 769.57 93.38 762.86 89.00 760.00
C 92.18 765.11 96.43 769.34 100.00 774.00 Z"/>
</g>
<g fill="#B6B5B5" fill-opacity="1.00" stroke="None">
<path d="
M 838.00 804.00 
C 848.07 796.95 855.53 784.47 863.00 775.00
C 855.30 782.70 842.88 794.03 838.00 804.00 Z"/>
</g>
<g fill="#C3C2C2" fill-opacity="1.00" stroke="None">
<path d="
M 118.00 796.00 
C 115.88 791.66 111.37 788.37 108.00 785.00
C 111.18 788.72 113.91 793.14 118.00 796.00 Z"/>
</g>
<g fill="#CDCCCC" fill-opacity="1.00" stroke="None">
<path d="
M 127.00 806.00 
C 125.41 802.75 120.96 799.07 118.00 797.00
C 119.59 800.25 124.04 803.93 127.00 806.00 Z"/>
</g>
<g fill="#C9C8C8" fill-opacity="1.00" stroke="None">
<path d="
M 797.00 845.00 
C 804.51 841.33 812.36 831.32 818.25 825.25 C 824.14 819.17 834.31 812.54 838.00 805.00
C 830.43 810.29 823.83 818.63 817.25 825.25 C 810.67 831.87 802.33 837.37 797.00 845.00 Z"/>
</g>
<g fill="#CAC9CA" fill-opacity="1.00" stroke="None">
<path d="
M 183.00 859.00 
C 176.28 849.37 163.45 841.58 154.70 833.30 C 145.94 825.03 136.98 813.97 127.00 807.00
C 131.80 816.77 145.81 826.56 153.75 834.25 C 161.70 841.94 173.04 854.13 183.00 859.00 Z"/>
</g>
<g fill="#C9C8C8" fill-opacity="1.00" stroke="None">
<path d="
M 785.00 855.00 
C 788.90 853.10 793.48 848.61 796.00 845.00
C 792.27 846.83 787.39 851.58 785.00 855.00 Z"/>
</g>
<g fill="#BFBEBE" fill-opacity="1.00" stroke="None">
<path d="
M 760.00 874.00 
C 767.63 869.25 778.77 862.48 784.00 855.00
C 776.90 860.41 764.84 866.57 760.00 874.00 Z"/>
</g>
<g fill="#C5C4C4" fill-opacity="1.00" stroke="None">
<path d="
M 199.00 871.00 
C 194.27 866.92 189.48 862.41 184.00 859.00
C 187.18 863.89 194.21 867.71 199.00 871.00 Z"/>
</g>
<g fill="#C7C6C6" fill-opacity="1.00" stroke="None">
<path d="
M 739.00 888.00 
C 745.04 884.26 755.04 880.07 759.00 874.00
C 752.08 878.29 745.31 883.12 739.00 888.00 Z"/>
</g>
<g fill="#C4C3C4" fill-opacity="1.00" stroke="None">
<path d="
M 221.00 886.00 
C 216.63 882.62 212.07 878.74 207.00 876.00
C 211.60 879.12 216.08 882.95 221.00 886.00 Z"/>
</g>
<g fill="#BFBDBE" fill-opacity="1.00" stroke="None">
<path d="
M 239.00 897.00 
C 236.16 894.97 233.34 892.71 230.00 891.00
C 232.89 892.87 235.79 895.15 239.00 897.00 Z"/>
</g>
<g fill="#B4B3B3" fill-opacity="1.00" stroke="None">
<path d="
M 255.00 906.00 
C 251.81 904.04 248.56 901.64 245.00 900.00
C 248.22 901.85 251.42 904.24 255.00 906.00 Z"/>
</g>
<g fill="#CBCBCB" fill-opacity="1.00" stroke="None">
<path d="
M 688.00 916.00 
C 694.66 913.13 700.87 909.35 707.00 906.00
C 700.46 908.82 693.98 912.52 688.00 916.00 Z"/>
</g>
<g fill="#D2D1D1" fill-opacity="1.00" stroke="None">
<path d="
M 273.00 915.00 
C 268.90 912.75 264.54 909.98 260.00 908.00
C 264.21 910.32 268.22 913.19 273.00 915.00 Z"/>
</g>
<g fill="#B1B0B0" fill-opacity="1.00" stroke="None">
<path d="
M 286.00 921.00 
C 282.85 919.17 279.67 917.17 276.00 916.00
C 279.13 917.48 282.64 919.55 286.00 921.00 Z"/>
</g>
<g fill="#B3B1B2" fill-opacity="1.00" stroke="None">
<path d="
M 594.00 949.00 
C 596.73 948.38 599.66 947.64 602.00 947.00
C 598.98 947.48 596.54 948.10 594.00 949.00 Z"/>
</g>
<g fill="#A3A1A1" fill-opacity="1.00" stroke="None">
<path d="
M 516.00 961.00 
L 526.00 961.00
C 526.00 961.00 526.04 960.00 526.00 960.00
C 522.82 960.00 518.43 959.26 516.00 961.00 Z"/>
</g>
</svg>